M48
; DRILL file {KiCad (6.0.2-0)} date 
; FORMAT={-:-/ absolute / metric / decimal}
; #@! TF.CreationDate,2022-04-11T12:52:13+09:00
; #@! TF.GenerationSoftware,Kicad,Pcbnew,(6.0.2-0)
; #@! TF.FileFunction,Plated,1,2,PTH
FMAT,2
METRIC
; #@! TA.AperFunction,Plated,PTH,ViaDrill
T1C0.600
; #@! TA.AperFunction,Plated,PTH,ComponentDrill
T2C0.800
; #@! TA.AperFunction,Plated,PTH,ComponentDrill
T3C1.000
; #@! TA.AperFunction,Plated,PTH,ComponentDrill
T4C1.300
%
G90
G05
T1
X101.467Y-86.306
X110.2Y-95.294
X110.25Y-100.116
X111.3Y-105.85
X111.3Y-113.1
X113.7Y-88.903
T2
X86.69Y-58.75
X86.75Y-52.5
X86.75Y-78.5
X86.75Y-85.25
X86.94Y-65.0
X86.94Y-71.75
X89.44Y-126.25
X89.5Y-120.0
X94.31Y-58.75
X94.37Y-52.5
X94.37Y-78.5
X94.37Y-85.25
X94.56Y-65.0
X94.56Y-71.75
X96.69Y-95.25
X97.06Y-126.25
X97.12Y-120.0
X97.19Y-102.5
X97.44Y-109.5
X97.75Y-115.5
X104.31Y-95.25
X104.81Y-102.5
X105.06Y-109.5
X105.37Y-115.5
X109.25Y-56.75
X116.87Y-56.75
X116.94Y-67.75
X117.44Y-61.5
X117.44Y-74.0
X117.44Y-80.75
X117.44Y-87.5
X117.69Y-94.0
X117.69Y-100.5
X117.69Y-106.0
X117.69Y-118.75
X117.94Y-112.5
X124.56Y-67.75
X124.69Y-56.5
X125.06Y-61.5
X125.06Y-74.0
X125.06Y-80.75
X125.06Y-87.5
X125.31Y-94.0
X125.31Y-100.5
X125.31Y-106.0
X125.31Y-118.75
X125.56Y-112.5
X132.31Y-56.5
T3
X90.92Y-133.49
X96.0Y-133.5
X133.225Y-69.125
X133.225Y-71.665
X133.225Y-74.205
X133.225Y-76.745
X133.225Y-79.285
X133.225Y-81.825
X133.225Y-84.365
X133.225Y-86.905
X133.225Y-89.445
X133.225Y-91.985
X133.225Y-94.525
X133.225Y-97.065
X133.225Y-99.605
X133.225Y-102.145
X133.225Y-104.685
X133.225Y-107.225
X133.225Y-109.765
X133.225Y-112.305
X133.225Y-114.845
X133.225Y-117.385
X135.765Y-69.125
X135.765Y-71.665
X135.765Y-74.205
X135.765Y-76.745
X135.765Y-79.285
X135.765Y-81.825
X135.765Y-84.365
X135.765Y-86.905
X135.765Y-89.445
X135.765Y-91.985
X135.765Y-94.525
X135.765Y-97.065
X135.765Y-99.605
X135.765Y-102.145
X135.765Y-104.685
X135.765Y-107.225
X135.765Y-109.765
X135.765Y-112.305
X135.765Y-114.845
X135.765Y-117.385
T4
X76.25Y-108.5
X76.25Y-112.0
X76.25Y-115.5
X76.25Y-119.0
X76.25Y-122.5
X76.5Y-90.25
X76.5Y-93.75
X76.5Y-97.25
X76.5Y-100.75
X76.545Y-71.5
X76.545Y-75.0
X76.545Y-78.5
X76.545Y-82.0
T3
G00X110.25Y-122.75
M15
G01X112.25Y-122.75
M16
G05
G00X110.25Y-128.75
M15
G01X112.25Y-128.75
M16
G05
G00X115.95Y-126.75
M15
G01X115.95Y-124.75
M16
G05
T0
M30
