%TF.GenerationSoftware,KiCad,Pcbnew,(6.0.2-0)*%
%TF.CreationDate,2022-04-11T12:52:23+09:00*%
%TF.ProjectId,reTProject,72655450-726f-46a6-9563-742e6b696361,rev?*%
%TF.SameCoordinates,Original*%
%TF.FileFunction,Legend,Top*%
%TF.FilePolarity,Positive*%
%FSLAX46Y46*%
G04 Gerber Fmt 4.6, Leading zero omitted, Abs format (unit mm)*
G04 Created by KiCad (PCBNEW (6.0.2-0)) date 2022-04-11 12:52:23*
%MOMM*%
%LPD*%
G01*
G04 APERTURE LIST*
%ADD10C,0.500000*%
%ADD11C,0.150000*%
%ADD12C,0.300000*%
%ADD13C,0.120000*%
G04 APERTURE END LIST*
D10*
X126619047Y-131857142D02*
X127000000Y-131857142D01*
X127190476Y-131714285D01*
X127285714Y-131571428D01*
X127476190Y-131142857D01*
X127571428Y-130571428D01*
X127571428Y-129428571D01*
X127476190Y-129142857D01*
X127380952Y-129000000D01*
X127190476Y-128857142D01*
X126809523Y-128857142D01*
X126619047Y-129000000D01*
X126523809Y-129142857D01*
X126428571Y-129428571D01*
X126428571Y-130142857D01*
X126523809Y-130428571D01*
X126619047Y-130571428D01*
X126809523Y-130714285D01*
X127190476Y-130714285D01*
X127380952Y-130571428D01*
X127476190Y-130428571D01*
X127571428Y-130142857D01*
X118964285Y-126607142D02*
X118964285Y-123607142D01*
X119726190Y-123607142D01*
X119916666Y-123750000D01*
X120011904Y-123892857D01*
X120107142Y-124178571D01*
X120107142Y-124607142D01*
X120011904Y-124892857D01*
X119916666Y-125035714D01*
X119726190Y-125178571D01*
X118964285Y-125178571D01*
X121821428Y-126607142D02*
X121821428Y-125035714D01*
X121726190Y-124750000D01*
X121535714Y-124607142D01*
X121154761Y-124607142D01*
X120964285Y-124750000D01*
X121821428Y-126464285D02*
X121630952Y-126607142D01*
X121154761Y-126607142D01*
X120964285Y-126464285D01*
X120869047Y-126178571D01*
X120869047Y-125892857D01*
X120964285Y-125607142D01*
X121154761Y-125464285D01*
X121630952Y-125464285D01*
X121821428Y-125321428D01*
X122773809Y-126607142D02*
X122773809Y-124607142D01*
X122773809Y-125178571D02*
X122869047Y-124892857D01*
X122964285Y-124750000D01*
X123154761Y-124607142D01*
X123345238Y-124607142D01*
X124773809Y-126464285D02*
X124583333Y-126607142D01*
X124202380Y-126607142D01*
X124011904Y-126464285D01*
X123916666Y-126178571D01*
X123916666Y-125035714D01*
X124011904Y-124750000D01*
X124202380Y-124607142D01*
X124583333Y-124607142D01*
X124773809Y-124750000D01*
X124869047Y-125035714D01*
X124869047Y-125321428D01*
X123916666Y-125607142D01*
X125440476Y-123607142D02*
X126583333Y-123607142D01*
X126011904Y-126607142D02*
X126011904Y-123607142D01*
X128011904Y-126464285D02*
X127821428Y-126607142D01*
X127440476Y-126607142D01*
X127250000Y-126464285D01*
X127154761Y-126178571D01*
X127154761Y-125035714D01*
X127250000Y-124750000D01*
X127440476Y-124607142D01*
X127821428Y-124607142D01*
X128011904Y-124750000D01*
X128107142Y-125035714D01*
X128107142Y-125321428D01*
X127154761Y-125607142D01*
X128964285Y-126607142D02*
X128964285Y-124607142D01*
X128964285Y-125178571D02*
X129059523Y-124892857D01*
X129154761Y-124750000D01*
X129345238Y-124607142D01*
X129535714Y-124607142D01*
X130202380Y-126607142D02*
X130202380Y-124607142D01*
X130202380Y-124892857D02*
X130297619Y-124750000D01*
X130488095Y-124607142D01*
X130773809Y-124607142D01*
X130964285Y-124750000D01*
X131059523Y-125035714D01*
X131059523Y-126607142D01*
X131059523Y-125035714D02*
X131154761Y-124750000D01*
X131345238Y-124607142D01*
X131630952Y-124607142D01*
X131821428Y-124750000D01*
X131916666Y-125035714D01*
X131916666Y-126607142D01*
X132869047Y-126607142D02*
X132869047Y-124607142D01*
X132869047Y-123607142D02*
X132773809Y-123750000D01*
X132869047Y-123892857D01*
X132964285Y-123750000D01*
X132869047Y-123607142D01*
X132869047Y-123892857D01*
X133821428Y-124607142D02*
X133821428Y-126607142D01*
X133821428Y-124892857D02*
X133916666Y-124750000D01*
X134107142Y-124607142D01*
X134392857Y-124607142D01*
X134583333Y-124750000D01*
X134678571Y-125035714D01*
X134678571Y-126607142D01*
X136488095Y-126607142D02*
X136488095Y-125035714D01*
X136392857Y-124750000D01*
X136202380Y-124607142D01*
X135821428Y-124607142D01*
X135630952Y-124750000D01*
X136488095Y-126464285D02*
X136297619Y-126607142D01*
X135821428Y-126607142D01*
X135630952Y-126464285D01*
X135535714Y-126178571D01*
X135535714Y-125892857D01*
X135630952Y-125607142D01*
X135821428Y-125464285D01*
X136297619Y-125464285D01*
X136488095Y-125321428D01*
X137726190Y-126607142D02*
X137535714Y-126464285D01*
X137440476Y-126178571D01*
X137440476Y-123607142D01*
D11*
%TO.C,Q7*%
X112404761Y-75047619D02*
X112309523Y-75000000D01*
X112214285Y-74904761D01*
X112071428Y-74761904D01*
X111976190Y-74714285D01*
X111880952Y-74714285D01*
X111928571Y-74952380D02*
X111833333Y-74904761D01*
X111738095Y-74809523D01*
X111690476Y-74619047D01*
X111690476Y-74285714D01*
X111738095Y-74095238D01*
X111833333Y-74000000D01*
X111928571Y-73952380D01*
X112119047Y-73952380D01*
X112214285Y-74000000D01*
X112309523Y-74095238D01*
X112357142Y-74285714D01*
X112357142Y-74619047D01*
X112309523Y-74809523D01*
X112214285Y-74904761D01*
X112119047Y-74952380D01*
X111928571Y-74952380D01*
X112690476Y-73952380D02*
X113357142Y-73952380D01*
X112928571Y-74952380D01*
%TO.C,R20*%
X120607142Y-59582380D02*
X120273809Y-59106190D01*
X120035714Y-59582380D02*
X120035714Y-58582380D01*
X120416666Y-58582380D01*
X120511904Y-58630000D01*
X120559523Y-58677619D01*
X120607142Y-58772857D01*
X120607142Y-58915714D01*
X120559523Y-59010952D01*
X120511904Y-59058571D01*
X120416666Y-59106190D01*
X120035714Y-59106190D01*
X120988095Y-58677619D02*
X121035714Y-58630000D01*
X121130952Y-58582380D01*
X121369047Y-58582380D01*
X121464285Y-58630000D01*
X121511904Y-58677619D01*
X121559523Y-58772857D01*
X121559523Y-58868095D01*
X121511904Y-59010952D01*
X120940476Y-59582380D01*
X121559523Y-59582380D01*
X122178571Y-58582380D02*
X122273809Y-58582380D01*
X122369047Y-58630000D01*
X122416666Y-58677619D01*
X122464285Y-58772857D01*
X122511904Y-58963333D01*
X122511904Y-59201428D01*
X122464285Y-59391904D01*
X122416666Y-59487142D01*
X122369047Y-59534761D01*
X122273809Y-59582380D01*
X122178571Y-59582380D01*
X122083333Y-59534761D01*
X122035714Y-59487142D01*
X121988095Y-59391904D01*
X121940476Y-59201428D01*
X121940476Y-58963333D01*
X121988095Y-58772857D01*
X122035714Y-58677619D01*
X122083333Y-58630000D01*
X122178571Y-58582380D01*
%TO.C,R16*%
X120857142Y-96822380D02*
X120523809Y-96346190D01*
X120285714Y-96822380D02*
X120285714Y-95822380D01*
X120666666Y-95822380D01*
X120761904Y-95870000D01*
X120809523Y-95917619D01*
X120857142Y-96012857D01*
X120857142Y-96155714D01*
X120809523Y-96250952D01*
X120761904Y-96298571D01*
X120666666Y-96346190D01*
X120285714Y-96346190D01*
X121809523Y-96822380D02*
X121238095Y-96822380D01*
X121523809Y-96822380D02*
X121523809Y-95822380D01*
X121428571Y-95965238D01*
X121333333Y-96060476D01*
X121238095Y-96108095D01*
X122666666Y-95822380D02*
X122476190Y-95822380D01*
X122380952Y-95870000D01*
X122333333Y-95917619D01*
X122238095Y-96060476D01*
X122190476Y-96250952D01*
X122190476Y-96631904D01*
X122238095Y-96727142D01*
X122285714Y-96774761D01*
X122380952Y-96822380D01*
X122571428Y-96822380D01*
X122666666Y-96774761D01*
X122714285Y-96727142D01*
X122761904Y-96631904D01*
X122761904Y-96393809D01*
X122714285Y-96298571D01*
X122666666Y-96250952D01*
X122571428Y-96203333D01*
X122380952Y-96203333D01*
X122285714Y-96250952D01*
X122238095Y-96298571D01*
X122190476Y-96393809D01*
%TO.C,J2*%
X71192380Y-95833333D02*
X71906666Y-95833333D01*
X72049523Y-95880952D01*
X72144761Y-95976190D01*
X72192380Y-96119047D01*
X72192380Y-96214285D01*
X71287619Y-95404761D02*
X71240000Y-95357142D01*
X71192380Y-95261904D01*
X71192380Y-95023809D01*
X71240000Y-94928571D01*
X71287619Y-94880952D01*
X71382857Y-94833333D01*
X71478095Y-94833333D01*
X71620952Y-94880952D01*
X72192380Y-95452380D01*
X72192380Y-94833333D01*
%TO.C,Q11*%
X111928571Y-106047619D02*
X111833333Y-106000000D01*
X111738095Y-105904761D01*
X111595238Y-105761904D01*
X111500000Y-105714285D01*
X111404761Y-105714285D01*
X111452380Y-105952380D02*
X111357142Y-105904761D01*
X111261904Y-105809523D01*
X111214285Y-105619047D01*
X111214285Y-105285714D01*
X111261904Y-105095238D01*
X111357142Y-105000000D01*
X111452380Y-104952380D01*
X111642857Y-104952380D01*
X111738095Y-105000000D01*
X111833333Y-105095238D01*
X111880952Y-105285714D01*
X111880952Y-105619047D01*
X111833333Y-105809523D01*
X111738095Y-105904761D01*
X111642857Y-105952380D01*
X111452380Y-105952380D01*
X112833333Y-105952380D02*
X112261904Y-105952380D01*
X112547619Y-105952380D02*
X112547619Y-104952380D01*
X112452380Y-105095238D01*
X112357142Y-105190476D01*
X112261904Y-105238095D01*
X113785714Y-105952380D02*
X113214285Y-105952380D01*
X113500000Y-105952380D02*
X113500000Y-104952380D01*
X113404761Y-105095238D01*
X113309523Y-105190476D01*
X113214285Y-105238095D01*
%TO.C,R19*%
X120857142Y-108822380D02*
X120523809Y-108346190D01*
X120285714Y-108822380D02*
X120285714Y-107822380D01*
X120666666Y-107822380D01*
X120761904Y-107870000D01*
X120809523Y-107917619D01*
X120857142Y-108012857D01*
X120857142Y-108155714D01*
X120809523Y-108250952D01*
X120761904Y-108298571D01*
X120666666Y-108346190D01*
X120285714Y-108346190D01*
X121809523Y-108822380D02*
X121238095Y-108822380D01*
X121523809Y-108822380D02*
X121523809Y-107822380D01*
X121428571Y-107965238D01*
X121333333Y-108060476D01*
X121238095Y-108108095D01*
X122285714Y-108822380D02*
X122476190Y-108822380D01*
X122571428Y-108774761D01*
X122619047Y-108727142D01*
X122714285Y-108584285D01*
X122761904Y-108393809D01*
X122761904Y-108012857D01*
X122714285Y-107917619D01*
X122666666Y-107870000D01*
X122571428Y-107822380D01*
X122380952Y-107822380D01*
X122285714Y-107870000D01*
X122238095Y-107917619D01*
X122190476Y-108012857D01*
X122190476Y-108250952D01*
X122238095Y-108346190D01*
X122285714Y-108393809D01*
X122380952Y-108441428D01*
X122571428Y-108441428D01*
X122666666Y-108393809D01*
X122714285Y-108346190D01*
X122761904Y-108250952D01*
%TO.C,R21*%
X121107142Y-115322380D02*
X120773809Y-114846190D01*
X120535714Y-115322380D02*
X120535714Y-114322380D01*
X120916666Y-114322380D01*
X121011904Y-114370000D01*
X121059523Y-114417619D01*
X121107142Y-114512857D01*
X121107142Y-114655714D01*
X121059523Y-114750952D01*
X121011904Y-114798571D01*
X120916666Y-114846190D01*
X120535714Y-114846190D01*
X121488095Y-114417619D02*
X121535714Y-114370000D01*
X121630952Y-114322380D01*
X121869047Y-114322380D01*
X121964285Y-114370000D01*
X122011904Y-114417619D01*
X122059523Y-114512857D01*
X122059523Y-114608095D01*
X122011904Y-114750952D01*
X121440476Y-115322380D01*
X122059523Y-115322380D01*
X123011904Y-115322380D02*
X122440476Y-115322380D01*
X122726190Y-115322380D02*
X122726190Y-114322380D01*
X122630952Y-114465238D01*
X122535714Y-114560476D01*
X122440476Y-114608095D01*
%TO.C,Q5*%
X107797619Y-80345238D02*
X107750000Y-80440476D01*
X107654761Y-80535714D01*
X107511904Y-80678571D01*
X107464285Y-80773809D01*
X107464285Y-80869047D01*
X107702380Y-80821428D02*
X107654761Y-80916666D01*
X107559523Y-81011904D01*
X107369047Y-81059523D01*
X107035714Y-81059523D01*
X106845238Y-81011904D01*
X106750000Y-80916666D01*
X106702380Y-80821428D01*
X106702380Y-80630952D01*
X106750000Y-80535714D01*
X106845238Y-80440476D01*
X107035714Y-80392857D01*
X107369047Y-80392857D01*
X107559523Y-80440476D01*
X107654761Y-80535714D01*
X107702380Y-80630952D01*
X107702380Y-80821428D01*
X106702380Y-79488095D02*
X106702380Y-79964285D01*
X107178571Y-80011904D01*
X107130952Y-79964285D01*
X107083333Y-79869047D01*
X107083333Y-79630952D01*
X107130952Y-79535714D01*
X107178571Y-79488095D01*
X107273809Y-79440476D01*
X107511904Y-79440476D01*
X107607142Y-79488095D01*
X107654761Y-79535714D01*
X107702380Y-79630952D01*
X107702380Y-79869047D01*
X107654761Y-79964285D01*
X107607142Y-80011904D01*
%TO.C,R12*%
X92607142Y-124332380D02*
X92273809Y-123856190D01*
X92035714Y-124332380D02*
X92035714Y-123332380D01*
X92416666Y-123332380D01*
X92511904Y-123380000D01*
X92559523Y-123427619D01*
X92607142Y-123522857D01*
X92607142Y-123665714D01*
X92559523Y-123760952D01*
X92511904Y-123808571D01*
X92416666Y-123856190D01*
X92035714Y-123856190D01*
X93559523Y-124332380D02*
X92988095Y-124332380D01*
X93273809Y-124332380D02*
X93273809Y-123332380D01*
X93178571Y-123475238D01*
X93083333Y-123570476D01*
X92988095Y-123618095D01*
X93940476Y-123427619D02*
X93988095Y-123380000D01*
X94083333Y-123332380D01*
X94321428Y-123332380D01*
X94416666Y-123380000D01*
X94464285Y-123427619D01*
X94511904Y-123522857D01*
X94511904Y-123618095D01*
X94464285Y-123760952D01*
X93892857Y-124332380D01*
X94511904Y-124332380D01*
%TO.C,Q12*%
X111928571Y-113297619D02*
X111833333Y-113250000D01*
X111738095Y-113154761D01*
X111595238Y-113011904D01*
X111500000Y-112964285D01*
X111404761Y-112964285D01*
X111452380Y-113202380D02*
X111357142Y-113154761D01*
X111261904Y-113059523D01*
X111214285Y-112869047D01*
X111214285Y-112535714D01*
X111261904Y-112345238D01*
X111357142Y-112250000D01*
X111452380Y-112202380D01*
X111642857Y-112202380D01*
X111738095Y-112250000D01*
X111833333Y-112345238D01*
X111880952Y-112535714D01*
X111880952Y-112869047D01*
X111833333Y-113059523D01*
X111738095Y-113154761D01*
X111642857Y-113202380D01*
X111452380Y-113202380D01*
X112833333Y-113202380D02*
X112261904Y-113202380D01*
X112547619Y-113202380D02*
X112547619Y-112202380D01*
X112452380Y-112345238D01*
X112357142Y-112440476D01*
X112261904Y-112488095D01*
X113214285Y-112297619D02*
X113261904Y-112250000D01*
X113357142Y-112202380D01*
X113595238Y-112202380D01*
X113690476Y-112250000D01*
X113738095Y-112297619D01*
X113785714Y-112392857D01*
X113785714Y-112488095D01*
X113738095Y-112630952D01*
X113166666Y-113202380D01*
X113785714Y-113202380D01*
%TO.C,Q2*%
X104297619Y-59595238D02*
X104250000Y-59690476D01*
X104154761Y-59785714D01*
X104011904Y-59928571D01*
X103964285Y-60023809D01*
X103964285Y-60119047D01*
X104202380Y-60071428D02*
X104154761Y-60166666D01*
X104059523Y-60261904D01*
X103869047Y-60309523D01*
X103535714Y-60309523D01*
X103345238Y-60261904D01*
X103250000Y-60166666D01*
X103202380Y-60071428D01*
X103202380Y-59880952D01*
X103250000Y-59785714D01*
X103345238Y-59690476D01*
X103535714Y-59642857D01*
X103869047Y-59642857D01*
X104059523Y-59690476D01*
X104154761Y-59785714D01*
X104202380Y-59880952D01*
X104202380Y-60071428D01*
X103297619Y-59261904D02*
X103250000Y-59214285D01*
X103202380Y-59119047D01*
X103202380Y-58880952D01*
X103250000Y-58785714D01*
X103297619Y-58738095D01*
X103392857Y-58690476D01*
X103488095Y-58690476D01*
X103630952Y-58738095D01*
X104202380Y-59309523D01*
X104202380Y-58690476D01*
%TO.C,R11*%
X92667142Y-118082380D02*
X92333809Y-117606190D01*
X92095714Y-118082380D02*
X92095714Y-117082380D01*
X92476666Y-117082380D01*
X92571904Y-117130000D01*
X92619523Y-117177619D01*
X92667142Y-117272857D01*
X92667142Y-117415714D01*
X92619523Y-117510952D01*
X92571904Y-117558571D01*
X92476666Y-117606190D01*
X92095714Y-117606190D01*
X93619523Y-118082380D02*
X93048095Y-118082380D01*
X93333809Y-118082380D02*
X93333809Y-117082380D01*
X93238571Y-117225238D01*
X93143333Y-117320476D01*
X93048095Y-117368095D01*
X94571904Y-118082380D02*
X94000476Y-118082380D01*
X94286190Y-118082380D02*
X94286190Y-117082380D01*
X94190952Y-117225238D01*
X94095714Y-117320476D01*
X94000476Y-117368095D01*
%TO.C,Q8*%
X109654761Y-82797619D02*
X109559523Y-82750000D01*
X109464285Y-82654761D01*
X109321428Y-82511904D01*
X109226190Y-82464285D01*
X109130952Y-82464285D01*
X109178571Y-82702380D02*
X109083333Y-82654761D01*
X108988095Y-82559523D01*
X108940476Y-82369047D01*
X108940476Y-82035714D01*
X108988095Y-81845238D01*
X109083333Y-81750000D01*
X109178571Y-81702380D01*
X109369047Y-81702380D01*
X109464285Y-81750000D01*
X109559523Y-81845238D01*
X109607142Y-82035714D01*
X109607142Y-82369047D01*
X109559523Y-82559523D01*
X109464285Y-82654761D01*
X109369047Y-82702380D01*
X109178571Y-82702380D01*
X110178571Y-82130952D02*
X110083333Y-82083333D01*
X110035714Y-82035714D01*
X109988095Y-81940476D01*
X109988095Y-81892857D01*
X110035714Y-81797619D01*
X110083333Y-81750000D01*
X110178571Y-81702380D01*
X110369047Y-81702380D01*
X110464285Y-81750000D01*
X110511904Y-81797619D01*
X110559523Y-81892857D01*
X110559523Y-81940476D01*
X110511904Y-82035714D01*
X110464285Y-82083333D01*
X110369047Y-82130952D01*
X110178571Y-82130952D01*
X110083333Y-82178571D01*
X110035714Y-82226190D01*
X109988095Y-82321428D01*
X109988095Y-82511904D01*
X110035714Y-82607142D01*
X110083333Y-82654761D01*
X110178571Y-82702380D01*
X110369047Y-82702380D01*
X110464285Y-82654761D01*
X110511904Y-82607142D01*
X110559523Y-82511904D01*
X110559523Y-82321428D01*
X110511904Y-82226190D01*
X110464285Y-82178571D01*
X110369047Y-82130952D01*
%TO.C,Q3*%
X107297619Y-66095238D02*
X107250000Y-66190476D01*
X107154761Y-66285714D01*
X107011904Y-66428571D01*
X106964285Y-66523809D01*
X106964285Y-66619047D01*
X107202380Y-66571428D02*
X107154761Y-66666666D01*
X107059523Y-66761904D01*
X106869047Y-66809523D01*
X106535714Y-66809523D01*
X106345238Y-66761904D01*
X106250000Y-66666666D01*
X106202380Y-66571428D01*
X106202380Y-66380952D01*
X106250000Y-66285714D01*
X106345238Y-66190476D01*
X106535714Y-66142857D01*
X106869047Y-66142857D01*
X107059523Y-66190476D01*
X107154761Y-66285714D01*
X107202380Y-66380952D01*
X107202380Y-66571428D01*
X106202380Y-65809523D02*
X106202380Y-65190476D01*
X106583333Y-65523809D01*
X106583333Y-65380952D01*
X106630952Y-65285714D01*
X106678571Y-65238095D01*
X106773809Y-65190476D01*
X107011904Y-65190476D01*
X107107142Y-65238095D01*
X107154761Y-65285714D01*
X107202380Y-65380952D01*
X107202380Y-65666666D01*
X107154761Y-65761904D01*
X107107142Y-65809523D01*
%TO.C,J4*%
X116452380Y-131533333D02*
X117166666Y-131533333D01*
X117309523Y-131580952D01*
X117404761Y-131676190D01*
X117452380Y-131819047D01*
X117452380Y-131914285D01*
X116785714Y-130628571D02*
X117452380Y-130628571D01*
X116404761Y-130866666D02*
X117119047Y-131104761D01*
X117119047Y-130485714D01*
%TO.C,Q4*%
X104297619Y-72595238D02*
X104250000Y-72690476D01*
X104154761Y-72785714D01*
X104011904Y-72928571D01*
X103964285Y-73023809D01*
X103964285Y-73119047D01*
X104202380Y-73071428D02*
X104154761Y-73166666D01*
X104059523Y-73261904D01*
X103869047Y-73309523D01*
X103535714Y-73309523D01*
X103345238Y-73261904D01*
X103250000Y-73166666D01*
X103202380Y-73071428D01*
X103202380Y-72880952D01*
X103250000Y-72785714D01*
X103345238Y-72690476D01*
X103535714Y-72642857D01*
X103869047Y-72642857D01*
X104059523Y-72690476D01*
X104154761Y-72785714D01*
X104202380Y-72880952D01*
X104202380Y-73071428D01*
X103535714Y-71785714D02*
X104202380Y-71785714D01*
X103154761Y-72023809D02*
X103869047Y-72261904D01*
X103869047Y-71642857D01*
D12*
%TO.C,web*%
X76076857Y-53553428D02*
X76367142Y-54569428D01*
X76657428Y-53843714D01*
X76947714Y-54569428D01*
X77238000Y-53553428D01*
X78399142Y-54496857D02*
X78254000Y-54569428D01*
X77963714Y-54569428D01*
X77818571Y-54496857D01*
X77746000Y-54351714D01*
X77746000Y-53771142D01*
X77818571Y-53626000D01*
X77963714Y-53553428D01*
X78254000Y-53553428D01*
X78399142Y-53626000D01*
X78471714Y-53771142D01*
X78471714Y-53916285D01*
X77746000Y-54061428D01*
X79124857Y-54569428D02*
X79124857Y-53045428D01*
X79124857Y-53626000D02*
X79270000Y-53553428D01*
X79560285Y-53553428D01*
X79705428Y-53626000D01*
X79778000Y-53698571D01*
X79850571Y-53843714D01*
X79850571Y-54279142D01*
X79778000Y-54424285D01*
X79705428Y-54496857D01*
X79560285Y-54569428D01*
X79270000Y-54569428D01*
X79124857Y-54496857D01*
D11*
%TO.C,R23*%
X127857142Y-54582380D02*
X127523809Y-54106190D01*
X127285714Y-54582380D02*
X127285714Y-53582380D01*
X127666666Y-53582380D01*
X127761904Y-53630000D01*
X127809523Y-53677619D01*
X127857142Y-53772857D01*
X127857142Y-53915714D01*
X127809523Y-54010952D01*
X127761904Y-54058571D01*
X127666666Y-54106190D01*
X127285714Y-54106190D01*
X128238095Y-53677619D02*
X128285714Y-53630000D01*
X128380952Y-53582380D01*
X128619047Y-53582380D01*
X128714285Y-53630000D01*
X128761904Y-53677619D01*
X128809523Y-53772857D01*
X128809523Y-53868095D01*
X128761904Y-54010952D01*
X128190476Y-54582380D01*
X128809523Y-54582380D01*
X129142857Y-53582380D02*
X129761904Y-53582380D01*
X129428571Y-53963333D01*
X129571428Y-53963333D01*
X129666666Y-54010952D01*
X129714285Y-54058571D01*
X129761904Y-54153809D01*
X129761904Y-54391904D01*
X129714285Y-54487142D01*
X129666666Y-54534761D01*
X129571428Y-54582380D01*
X129285714Y-54582380D01*
X129190476Y-54534761D01*
X129142857Y-54487142D01*
%TO.C,R8*%
X100833333Y-100582380D02*
X100500000Y-100106190D01*
X100261904Y-100582380D02*
X100261904Y-99582380D01*
X100642857Y-99582380D01*
X100738095Y-99630000D01*
X100785714Y-99677619D01*
X100833333Y-99772857D01*
X100833333Y-99915714D01*
X100785714Y-100010952D01*
X100738095Y-100058571D01*
X100642857Y-100106190D01*
X100261904Y-100106190D01*
X101404761Y-100010952D02*
X101309523Y-99963333D01*
X101261904Y-99915714D01*
X101214285Y-99820476D01*
X101214285Y-99772857D01*
X101261904Y-99677619D01*
X101309523Y-99630000D01*
X101404761Y-99582380D01*
X101595238Y-99582380D01*
X101690476Y-99630000D01*
X101738095Y-99677619D01*
X101785714Y-99772857D01*
X101785714Y-99820476D01*
X101738095Y-99915714D01*
X101690476Y-99963333D01*
X101595238Y-100010952D01*
X101404761Y-100010952D01*
X101309523Y-100058571D01*
X101261904Y-100106190D01*
X101214285Y-100201428D01*
X101214285Y-100391904D01*
X101261904Y-100487142D01*
X101309523Y-100534761D01*
X101404761Y-100582380D01*
X101595238Y-100582380D01*
X101690476Y-100534761D01*
X101738095Y-100487142D01*
X101785714Y-100391904D01*
X101785714Y-100201428D01*
X101738095Y-100106190D01*
X101690476Y-100058571D01*
X101595238Y-100010952D01*
%TO.C,R15*%
X120607142Y-72082380D02*
X120273809Y-71606190D01*
X120035714Y-72082380D02*
X120035714Y-71082380D01*
X120416666Y-71082380D01*
X120511904Y-71130000D01*
X120559523Y-71177619D01*
X120607142Y-71272857D01*
X120607142Y-71415714D01*
X120559523Y-71510952D01*
X120511904Y-71558571D01*
X120416666Y-71606190D01*
X120035714Y-71606190D01*
X121559523Y-72082380D02*
X120988095Y-72082380D01*
X121273809Y-72082380D02*
X121273809Y-71082380D01*
X121178571Y-71225238D01*
X121083333Y-71320476D01*
X120988095Y-71368095D01*
X122464285Y-71082380D02*
X121988095Y-71082380D01*
X121940476Y-71558571D01*
X121988095Y-71510952D01*
X122083333Y-71463333D01*
X122321428Y-71463333D01*
X122416666Y-71510952D01*
X122464285Y-71558571D01*
X122511904Y-71653809D01*
X122511904Y-71891904D01*
X122464285Y-71987142D01*
X122416666Y-72034761D01*
X122321428Y-72082380D01*
X122083333Y-72082380D01*
X121988095Y-72034761D01*
X121940476Y-71987142D01*
%TO.C,J1*%
X70942380Y-115833333D02*
X71656666Y-115833333D01*
X71799523Y-115880952D01*
X71894761Y-115976190D01*
X71942380Y-116119047D01*
X71942380Y-116214285D01*
X71942380Y-114833333D02*
X71942380Y-115404761D01*
X71942380Y-115119047D02*
X70942380Y-115119047D01*
X71085238Y-115214285D01*
X71180476Y-115309523D01*
X71228095Y-115404761D01*
%TO.C,Q9*%
X112404761Y-91047619D02*
X112309523Y-91000000D01*
X112214285Y-90904761D01*
X112071428Y-90761904D01*
X111976190Y-90714285D01*
X111880952Y-90714285D01*
X111928571Y-90952380D02*
X111833333Y-90904761D01*
X111738095Y-90809523D01*
X111690476Y-90619047D01*
X111690476Y-90285714D01*
X111738095Y-90095238D01*
X111833333Y-90000000D01*
X111928571Y-89952380D01*
X112119047Y-89952380D01*
X112214285Y-90000000D01*
X112309523Y-90095238D01*
X112357142Y-90285714D01*
X112357142Y-90619047D01*
X112309523Y-90809523D01*
X112214285Y-90904761D01*
X112119047Y-90952380D01*
X111928571Y-90952380D01*
X112833333Y-90952380D02*
X113023809Y-90952380D01*
X113119047Y-90904761D01*
X113166666Y-90857142D01*
X113261904Y-90714285D01*
X113309523Y-90523809D01*
X113309523Y-90142857D01*
X113261904Y-90047619D01*
X113214285Y-90000000D01*
X113119047Y-89952380D01*
X112928571Y-89952380D01*
X112833333Y-90000000D01*
X112785714Y-90047619D01*
X112738095Y-90142857D01*
X112738095Y-90380952D01*
X112785714Y-90476190D01*
X112833333Y-90523809D01*
X112928571Y-90571428D01*
X113119047Y-90571428D01*
X113214285Y-90523809D01*
X113261904Y-90476190D01*
X113309523Y-90380952D01*
%TO.C,Q6*%
X104297619Y-88595238D02*
X104250000Y-88690476D01*
X104154761Y-88785714D01*
X104011904Y-88928571D01*
X103964285Y-89023809D01*
X103964285Y-89119047D01*
X104202380Y-89071428D02*
X104154761Y-89166666D01*
X104059523Y-89261904D01*
X103869047Y-89309523D01*
X103535714Y-89309523D01*
X103345238Y-89261904D01*
X103250000Y-89166666D01*
X103202380Y-89071428D01*
X103202380Y-88880952D01*
X103250000Y-88785714D01*
X103345238Y-88690476D01*
X103535714Y-88642857D01*
X103869047Y-88642857D01*
X104059523Y-88690476D01*
X104154761Y-88785714D01*
X104202380Y-88880952D01*
X104202380Y-89071428D01*
X103202380Y-87785714D02*
X103202380Y-87976190D01*
X103250000Y-88071428D01*
X103297619Y-88119047D01*
X103440476Y-88214285D01*
X103630952Y-88261904D01*
X104011904Y-88261904D01*
X104107142Y-88214285D01*
X104154761Y-88166666D01*
X104202380Y-88071428D01*
X104202380Y-87880952D01*
X104154761Y-87785714D01*
X104107142Y-87738095D01*
X104011904Y-87690476D01*
X103773809Y-87690476D01*
X103678571Y-87738095D01*
X103630952Y-87785714D01*
X103583333Y-87880952D01*
X103583333Y-88071428D01*
X103630952Y-88166666D01*
X103678571Y-88214285D01*
X103773809Y-88261904D01*
%TO.C,J3*%
X71237380Y-77083333D02*
X71951666Y-77083333D01*
X72094523Y-77130952D01*
X72189761Y-77226190D01*
X72237380Y-77369047D01*
X72237380Y-77464285D01*
X71237380Y-76702380D02*
X71237380Y-76083333D01*
X71618333Y-76416666D01*
X71618333Y-76273809D01*
X71665952Y-76178571D01*
X71713571Y-76130952D01*
X71808809Y-76083333D01*
X72046904Y-76083333D01*
X72142142Y-76130952D01*
X72189761Y-76178571D01*
X72237380Y-76273809D01*
X72237380Y-76559523D01*
X72189761Y-76654761D01*
X72142142Y-76702380D01*
%TO.C,R14*%
X120607142Y-83572380D02*
X120273809Y-83096190D01*
X120035714Y-83572380D02*
X120035714Y-82572380D01*
X120416666Y-82572380D01*
X120511904Y-82620000D01*
X120559523Y-82667619D01*
X120607142Y-82762857D01*
X120607142Y-82905714D01*
X120559523Y-83000952D01*
X120511904Y-83048571D01*
X120416666Y-83096190D01*
X120035714Y-83096190D01*
X121559523Y-83572380D02*
X120988095Y-83572380D01*
X121273809Y-83572380D02*
X121273809Y-82572380D01*
X121178571Y-82715238D01*
X121083333Y-82810476D01*
X120988095Y-82858095D01*
X122416666Y-82905714D02*
X122416666Y-83572380D01*
X122178571Y-82524761D02*
X121940476Y-83239047D01*
X122559523Y-83239047D01*
%TO.C,R9*%
X101083333Y-107582380D02*
X100750000Y-107106190D01*
X100511904Y-107582380D02*
X100511904Y-106582380D01*
X100892857Y-106582380D01*
X100988095Y-106630000D01*
X101035714Y-106677619D01*
X101083333Y-106772857D01*
X101083333Y-106915714D01*
X101035714Y-107010952D01*
X100988095Y-107058571D01*
X100892857Y-107106190D01*
X100511904Y-107106190D01*
X101559523Y-107582380D02*
X101750000Y-107582380D01*
X101845238Y-107534761D01*
X101892857Y-107487142D01*
X101988095Y-107344285D01*
X102035714Y-107153809D01*
X102035714Y-106772857D01*
X101988095Y-106677619D01*
X101940476Y-106630000D01*
X101845238Y-106582380D01*
X101654761Y-106582380D01*
X101559523Y-106630000D01*
X101511904Y-106677619D01*
X101464285Y-106772857D01*
X101464285Y-107010952D01*
X101511904Y-107106190D01*
X101559523Y-107153809D01*
X101654761Y-107201428D01*
X101845238Y-107201428D01*
X101940476Y-107153809D01*
X101988095Y-107106190D01*
X102035714Y-107010952D01*
%TO.C,R5*%
X90393333Y-76582380D02*
X90060000Y-76106190D01*
X89821904Y-76582380D02*
X89821904Y-75582380D01*
X90202857Y-75582380D01*
X90298095Y-75630000D01*
X90345714Y-75677619D01*
X90393333Y-75772857D01*
X90393333Y-75915714D01*
X90345714Y-76010952D01*
X90298095Y-76058571D01*
X90202857Y-76106190D01*
X89821904Y-76106190D01*
X91298095Y-75582380D02*
X90821904Y-75582380D01*
X90774285Y-76058571D01*
X90821904Y-76010952D01*
X90917142Y-75963333D01*
X91155238Y-75963333D01*
X91250476Y-76010952D01*
X91298095Y-76058571D01*
X91345714Y-76153809D01*
X91345714Y-76391904D01*
X91298095Y-76487142D01*
X91250476Y-76534761D01*
X91155238Y-76582380D01*
X90917142Y-76582380D01*
X90821904Y-76534761D01*
X90774285Y-76487142D01*
%TO.C,R4*%
X90583333Y-69832380D02*
X90250000Y-69356190D01*
X90011904Y-69832380D02*
X90011904Y-68832380D01*
X90392857Y-68832380D01*
X90488095Y-68880000D01*
X90535714Y-68927619D01*
X90583333Y-69022857D01*
X90583333Y-69165714D01*
X90535714Y-69260952D01*
X90488095Y-69308571D01*
X90392857Y-69356190D01*
X90011904Y-69356190D01*
X91440476Y-69165714D02*
X91440476Y-69832380D01*
X91202380Y-68784761D02*
X90964285Y-69499047D01*
X91583333Y-69499047D01*
%TO.C,R18*%
X120857142Y-103322380D02*
X120523809Y-102846190D01*
X120285714Y-103322380D02*
X120285714Y-102322380D01*
X120666666Y-102322380D01*
X120761904Y-102370000D01*
X120809523Y-102417619D01*
X120857142Y-102512857D01*
X120857142Y-102655714D01*
X120809523Y-102750952D01*
X120761904Y-102798571D01*
X120666666Y-102846190D01*
X120285714Y-102846190D01*
X121809523Y-103322380D02*
X121238095Y-103322380D01*
X121523809Y-103322380D02*
X121523809Y-102322380D01*
X121428571Y-102465238D01*
X121333333Y-102560476D01*
X121238095Y-102608095D01*
X122380952Y-102750952D02*
X122285714Y-102703333D01*
X122238095Y-102655714D01*
X122190476Y-102560476D01*
X122190476Y-102512857D01*
X122238095Y-102417619D01*
X122285714Y-102370000D01*
X122380952Y-102322380D01*
X122571428Y-102322380D01*
X122666666Y-102370000D01*
X122714285Y-102417619D01*
X122761904Y-102512857D01*
X122761904Y-102560476D01*
X122714285Y-102655714D01*
X122666666Y-102703333D01*
X122571428Y-102750952D01*
X122380952Y-102750952D01*
X122285714Y-102798571D01*
X122238095Y-102846190D01*
X122190476Y-102941428D01*
X122190476Y-103131904D01*
X122238095Y-103227142D01*
X122285714Y-103274761D01*
X122380952Y-103322380D01*
X122571428Y-103322380D01*
X122666666Y-103274761D01*
X122714285Y-103227142D01*
X122761904Y-103131904D01*
X122761904Y-102941428D01*
X122714285Y-102846190D01*
X122666666Y-102798571D01*
X122571428Y-102750952D01*
%TO.C,F1*%
X93016666Y-136378571D02*
X92683333Y-136378571D01*
X92683333Y-136902380D02*
X92683333Y-135902380D01*
X93159523Y-135902380D01*
X94064285Y-136902380D02*
X93492857Y-136902380D01*
X93778571Y-136902380D02*
X93778571Y-135902380D01*
X93683333Y-136045238D01*
X93588095Y-136140476D01*
X93492857Y-136188095D01*
%TO.C,R13*%
X120607142Y-85582380D02*
X120273809Y-85106190D01*
X120035714Y-85582380D02*
X120035714Y-84582380D01*
X120416666Y-84582380D01*
X120511904Y-84630000D01*
X120559523Y-84677619D01*
X120607142Y-84772857D01*
X120607142Y-84915714D01*
X120559523Y-85010952D01*
X120511904Y-85058571D01*
X120416666Y-85106190D01*
X120035714Y-85106190D01*
X121559523Y-85582380D02*
X120988095Y-85582380D01*
X121273809Y-85582380D02*
X121273809Y-84582380D01*
X121178571Y-84725238D01*
X121083333Y-84820476D01*
X120988095Y-84868095D01*
X121892857Y-84582380D02*
X122511904Y-84582380D01*
X122178571Y-84963333D01*
X122321428Y-84963333D01*
X122416666Y-85010952D01*
X122464285Y-85058571D01*
X122511904Y-85153809D01*
X122511904Y-85391904D01*
X122464285Y-85487142D01*
X122416666Y-85534761D01*
X122321428Y-85582380D01*
X122035714Y-85582380D01*
X121940476Y-85534761D01*
X121892857Y-85487142D01*
%TO.C,J5*%
X134161666Y-66247380D02*
X134161666Y-66961666D01*
X134114047Y-67104523D01*
X134018809Y-67199761D01*
X133875952Y-67247380D01*
X133780714Y-67247380D01*
X135114047Y-66247380D02*
X134637857Y-66247380D01*
X134590238Y-66723571D01*
X134637857Y-66675952D01*
X134733095Y-66628333D01*
X134971190Y-66628333D01*
X135066428Y-66675952D01*
X135114047Y-66723571D01*
X135161666Y-66818809D01*
X135161666Y-67056904D01*
X135114047Y-67152142D01*
X135066428Y-67199761D01*
X134971190Y-67247380D01*
X134733095Y-67247380D01*
X134637857Y-67199761D01*
X134590238Y-67152142D01*
%TO.C,Q1*%
X106297619Y-52845238D02*
X106250000Y-52940476D01*
X106154761Y-53035714D01*
X106011904Y-53178571D01*
X105964285Y-53273809D01*
X105964285Y-53369047D01*
X106202380Y-53321428D02*
X106154761Y-53416666D01*
X106059523Y-53511904D01*
X105869047Y-53559523D01*
X105535714Y-53559523D01*
X105345238Y-53511904D01*
X105250000Y-53416666D01*
X105202380Y-53321428D01*
X105202380Y-53130952D01*
X105250000Y-53035714D01*
X105345238Y-52940476D01*
X105535714Y-52892857D01*
X105869047Y-52892857D01*
X106059523Y-52940476D01*
X106154761Y-53035714D01*
X106202380Y-53130952D01*
X106202380Y-53321428D01*
X106202380Y-51940476D02*
X106202380Y-52511904D01*
X106202380Y-52226190D02*
X105202380Y-52226190D01*
X105345238Y-52321428D01*
X105440476Y-52416666D01*
X105488095Y-52511904D01*
%TO.C,R6*%
X90393333Y-83332380D02*
X90060000Y-82856190D01*
X89821904Y-83332380D02*
X89821904Y-82332380D01*
X90202857Y-82332380D01*
X90298095Y-82380000D01*
X90345714Y-82427619D01*
X90393333Y-82522857D01*
X90393333Y-82665714D01*
X90345714Y-82760952D01*
X90298095Y-82808571D01*
X90202857Y-82856190D01*
X89821904Y-82856190D01*
X91250476Y-82332380D02*
X91060000Y-82332380D01*
X90964761Y-82380000D01*
X90917142Y-82427619D01*
X90821904Y-82570476D01*
X90774285Y-82760952D01*
X90774285Y-83141904D01*
X90821904Y-83237142D01*
X90869523Y-83284761D01*
X90964761Y-83332380D01*
X91155238Y-83332380D01*
X91250476Y-83284761D01*
X91298095Y-83237142D01*
X91345714Y-83141904D01*
X91345714Y-82903809D01*
X91298095Y-82808571D01*
X91250476Y-82760952D01*
X91155238Y-82713333D01*
X90964761Y-82713333D01*
X90869523Y-82760952D01*
X90821904Y-82808571D01*
X90774285Y-82903809D01*
%TO.C,R24*%
X120857142Y-121572380D02*
X120523809Y-121096190D01*
X120285714Y-121572380D02*
X120285714Y-120572380D01*
X120666666Y-120572380D01*
X120761904Y-120620000D01*
X120809523Y-120667619D01*
X120857142Y-120762857D01*
X120857142Y-120905714D01*
X120809523Y-121000952D01*
X120761904Y-121048571D01*
X120666666Y-121096190D01*
X120285714Y-121096190D01*
X121238095Y-120667619D02*
X121285714Y-120620000D01*
X121380952Y-120572380D01*
X121619047Y-120572380D01*
X121714285Y-120620000D01*
X121761904Y-120667619D01*
X121809523Y-120762857D01*
X121809523Y-120858095D01*
X121761904Y-121000952D01*
X121190476Y-121572380D01*
X121809523Y-121572380D01*
X122666666Y-120905714D02*
X122666666Y-121572380D01*
X122428571Y-120524761D02*
X122190476Y-121239047D01*
X122809523Y-121239047D01*
%TO.C,R10*%
X100917142Y-113582380D02*
X100583809Y-113106190D01*
X100345714Y-113582380D02*
X100345714Y-112582380D01*
X100726666Y-112582380D01*
X100821904Y-112630000D01*
X100869523Y-112677619D01*
X100917142Y-112772857D01*
X100917142Y-112915714D01*
X100869523Y-113010952D01*
X100821904Y-113058571D01*
X100726666Y-113106190D01*
X100345714Y-113106190D01*
X101869523Y-113582380D02*
X101298095Y-113582380D01*
X101583809Y-113582380D02*
X101583809Y-112582380D01*
X101488571Y-112725238D01*
X101393333Y-112820476D01*
X101298095Y-112868095D01*
X102488571Y-112582380D02*
X102583809Y-112582380D01*
X102679047Y-112630000D01*
X102726666Y-112677619D01*
X102774285Y-112772857D01*
X102821904Y-112963333D01*
X102821904Y-113201428D01*
X102774285Y-113391904D01*
X102726666Y-113487142D01*
X102679047Y-113534761D01*
X102583809Y-113582380D01*
X102488571Y-113582380D01*
X102393333Y-113534761D01*
X102345714Y-113487142D01*
X102298095Y-113391904D01*
X102250476Y-113201428D01*
X102250476Y-112963333D01*
X102298095Y-112772857D01*
X102345714Y-112677619D01*
X102393333Y-112630000D01*
X102488571Y-112582380D01*
%TO.C,R3*%
X90583333Y-63082380D02*
X90250000Y-62606190D01*
X90011904Y-63082380D02*
X90011904Y-62082380D01*
X90392857Y-62082380D01*
X90488095Y-62130000D01*
X90535714Y-62177619D01*
X90583333Y-62272857D01*
X90583333Y-62415714D01*
X90535714Y-62510952D01*
X90488095Y-62558571D01*
X90392857Y-62606190D01*
X90011904Y-62606190D01*
X90916666Y-62082380D02*
X91535714Y-62082380D01*
X91202380Y-62463333D01*
X91345238Y-62463333D01*
X91440476Y-62510952D01*
X91488095Y-62558571D01*
X91535714Y-62653809D01*
X91535714Y-62891904D01*
X91488095Y-62987142D01*
X91440476Y-63034761D01*
X91345238Y-63082380D01*
X91059523Y-63082380D01*
X90964285Y-63034761D01*
X90916666Y-62987142D01*
%TO.C,R7*%
X100333333Y-93332380D02*
X100000000Y-92856190D01*
X99761904Y-93332380D02*
X99761904Y-92332380D01*
X100142857Y-92332380D01*
X100238095Y-92380000D01*
X100285714Y-92427619D01*
X100333333Y-92522857D01*
X100333333Y-92665714D01*
X100285714Y-92760952D01*
X100238095Y-92808571D01*
X100142857Y-92856190D01*
X99761904Y-92856190D01*
X100666666Y-92332380D02*
X101333333Y-92332380D01*
X100904761Y-93332380D01*
%TO.C,R2*%
X90333333Y-56832380D02*
X90000000Y-56356190D01*
X89761904Y-56832380D02*
X89761904Y-55832380D01*
X90142857Y-55832380D01*
X90238095Y-55880000D01*
X90285714Y-55927619D01*
X90333333Y-56022857D01*
X90333333Y-56165714D01*
X90285714Y-56260952D01*
X90238095Y-56308571D01*
X90142857Y-56356190D01*
X89761904Y-56356190D01*
X90714285Y-55927619D02*
X90761904Y-55880000D01*
X90857142Y-55832380D01*
X91095238Y-55832380D01*
X91190476Y-55880000D01*
X91238095Y-55927619D01*
X91285714Y-56022857D01*
X91285714Y-56118095D01*
X91238095Y-56260952D01*
X90666666Y-56832380D01*
X91285714Y-56832380D01*
%TO.C,R1*%
X90393333Y-50582380D02*
X90060000Y-50106190D01*
X89821904Y-50582380D02*
X89821904Y-49582380D01*
X90202857Y-49582380D01*
X90298095Y-49630000D01*
X90345714Y-49677619D01*
X90393333Y-49772857D01*
X90393333Y-49915714D01*
X90345714Y-50010952D01*
X90298095Y-50058571D01*
X90202857Y-50106190D01*
X89821904Y-50106190D01*
X91345714Y-50582380D02*
X90774285Y-50582380D01*
X91060000Y-50582380D02*
X91060000Y-49582380D01*
X90964761Y-49725238D01*
X90869523Y-49820476D01*
X90774285Y-49868095D01*
%TO.C,Q10*%
X111928571Y-98297619D02*
X111833333Y-98250000D01*
X111738095Y-98154761D01*
X111595238Y-98011904D01*
X111500000Y-97964285D01*
X111404761Y-97964285D01*
X111452380Y-98202380D02*
X111357142Y-98154761D01*
X111261904Y-98059523D01*
X111214285Y-97869047D01*
X111214285Y-97535714D01*
X111261904Y-97345238D01*
X111357142Y-97250000D01*
X111452380Y-97202380D01*
X111642857Y-97202380D01*
X111738095Y-97250000D01*
X111833333Y-97345238D01*
X111880952Y-97535714D01*
X111880952Y-97869047D01*
X111833333Y-98059523D01*
X111738095Y-98154761D01*
X111642857Y-98202380D01*
X111452380Y-98202380D01*
X112833333Y-98202380D02*
X112261904Y-98202380D01*
X112547619Y-98202380D02*
X112547619Y-97202380D01*
X112452380Y-97345238D01*
X112357142Y-97440476D01*
X112261904Y-97488095D01*
X113452380Y-97202380D02*
X113547619Y-97202380D01*
X113642857Y-97250000D01*
X113690476Y-97297619D01*
X113738095Y-97392857D01*
X113785714Y-97583333D01*
X113785714Y-97821428D01*
X113738095Y-98011904D01*
X113690476Y-98107142D01*
X113642857Y-98154761D01*
X113547619Y-98202380D01*
X113452380Y-98202380D01*
X113357142Y-98154761D01*
X113309523Y-98107142D01*
X113261904Y-98011904D01*
X113214285Y-97821428D01*
X113214285Y-97583333D01*
X113261904Y-97392857D01*
X113309523Y-97297619D01*
X113357142Y-97250000D01*
X113452380Y-97202380D01*
%TO.C,R17*%
X120107142Y-65832380D02*
X119773809Y-65356190D01*
X119535714Y-65832380D02*
X119535714Y-64832380D01*
X119916666Y-64832380D01*
X120011904Y-64880000D01*
X120059523Y-64927619D01*
X120107142Y-65022857D01*
X120107142Y-65165714D01*
X120059523Y-65260952D01*
X120011904Y-65308571D01*
X119916666Y-65356190D01*
X119535714Y-65356190D01*
X121059523Y-65832380D02*
X120488095Y-65832380D01*
X120773809Y-65832380D02*
X120773809Y-64832380D01*
X120678571Y-64975238D01*
X120583333Y-65070476D01*
X120488095Y-65118095D01*
X121392857Y-64832380D02*
X122059523Y-64832380D01*
X121630952Y-65832380D01*
%TO.C,R22*%
X112417142Y-54832380D02*
X112083809Y-54356190D01*
X111845714Y-54832380D02*
X111845714Y-53832380D01*
X112226666Y-53832380D01*
X112321904Y-53880000D01*
X112369523Y-53927619D01*
X112417142Y-54022857D01*
X112417142Y-54165714D01*
X112369523Y-54260952D01*
X112321904Y-54308571D01*
X112226666Y-54356190D01*
X111845714Y-54356190D01*
X112798095Y-53927619D02*
X112845714Y-53880000D01*
X112940952Y-53832380D01*
X113179047Y-53832380D01*
X113274285Y-53880000D01*
X113321904Y-53927619D01*
X113369523Y-54022857D01*
X113369523Y-54118095D01*
X113321904Y-54260952D01*
X112750476Y-54832380D01*
X113369523Y-54832380D01*
X113750476Y-53927619D02*
X113798095Y-53880000D01*
X113893333Y-53832380D01*
X114131428Y-53832380D01*
X114226666Y-53880000D01*
X114274285Y-53927619D01*
X114321904Y-54022857D01*
X114321904Y-54118095D01*
X114274285Y-54260952D01*
X113702857Y-54832380D01*
X114321904Y-54832380D01*
D13*
%TO.C,Q7*%
X113450000Y-75350000D02*
X113450000Y-76400000D01*
X111050000Y-75350000D02*
X113450000Y-75350000D01*
X113450000Y-78650000D02*
X113450000Y-77600000D01*
X111650000Y-78650000D02*
X113450000Y-78650000D01*
%TO.C,R20*%
X124520000Y-62870000D02*
X124520000Y-62540000D01*
X117980000Y-60130000D02*
X124520000Y-60130000D01*
X117980000Y-60460000D02*
X117980000Y-60130000D01*
X124520000Y-60130000D02*
X124520000Y-60460000D01*
X117980000Y-62870000D02*
X124520000Y-62870000D01*
X117980000Y-62540000D02*
X117980000Y-62870000D01*
%TO.C,R16*%
X118230000Y-92630000D02*
X118230000Y-92960000D01*
X124770000Y-92960000D02*
X124770000Y-92630000D01*
X124770000Y-95040000D02*
X124770000Y-95370000D01*
X124770000Y-92630000D02*
X118230000Y-92630000D01*
X118230000Y-95370000D02*
X118230000Y-95040000D01*
X124770000Y-95370000D02*
X118230000Y-95370000D01*
%TO.C,J2*%
X73500000Y-91650000D02*
X73500000Y-88850000D01*
X77601000Y-103060000D02*
X77601000Y-102290000D01*
X73500000Y-98650000D02*
X75811000Y-98650000D01*
X77250000Y-88850000D02*
X77250000Y-88850000D01*
X77250000Y-92350000D02*
X77250000Y-92350000D01*
X79160000Y-103300000D02*
X81400000Y-103300000D01*
X73500000Y-88850000D02*
X75811000Y-88850000D01*
X77189000Y-95150000D02*
X77250000Y-95150000D01*
X73500000Y-95150000D02*
X73500000Y-92350000D01*
X81400000Y-103300000D02*
X81400000Y-101300000D01*
X73500000Y-102150000D02*
X74960000Y-102150000D01*
X72740000Y-87940000D02*
X81160000Y-87940000D01*
X77601000Y-89116000D02*
X77601000Y-87940000D01*
X73500000Y-95150000D02*
X75811000Y-95150000D01*
X77189000Y-98650000D02*
X77250000Y-98650000D01*
X77250000Y-95150000D02*
X77250000Y-95149000D01*
X77189000Y-92350000D02*
X77250000Y-92350000D01*
X72740000Y-103060000D02*
X81160000Y-103060000D01*
X77250000Y-95850000D02*
X77250000Y-95850000D01*
X72740000Y-103060000D02*
X72740000Y-87940000D01*
X73500000Y-98650000D02*
X73500000Y-95850000D01*
X73500000Y-92350000D02*
X75811000Y-92350000D01*
X73500000Y-99350000D02*
X74960000Y-99350000D01*
X77601000Y-99210000D02*
X77601000Y-98383000D01*
X77189000Y-91650000D02*
X77250000Y-91650000D01*
X77250000Y-91650000D02*
X77250000Y-91649000D01*
X81160000Y-103060000D02*
X81160000Y-87940000D01*
X77250000Y-98650000D02*
X77250000Y-98649000D01*
X77189000Y-88850000D02*
X77250000Y-88850000D01*
X73500000Y-91650000D02*
X75811000Y-91650000D01*
X73500000Y-95850000D02*
X75811000Y-95850000D01*
X77601000Y-96116000D02*
X77601000Y-94883000D01*
X77601000Y-92616000D02*
X77601000Y-91383000D01*
X77189000Y-95850000D02*
X77250000Y-95850000D01*
X73500000Y-102150000D02*
X73500000Y-99350000D01*
X74969000Y-99752000D02*
G75*
G03*
X74970566Y-101747890I-69000J-998000D01*
G01*
X75242000Y-92810000D02*
G75*
G03*
X75242233Y-94689915I-342000J-940000D01*
G01*
X75242000Y-96310000D02*
G75*
G03*
X75242233Y-98189915I-342000J-940000D01*
G01*
X75242000Y-89310000D02*
G75*
G03*
X75242233Y-91189915I-342000J-940000D01*
G01*
%TO.C,Q11*%
X111650000Y-109650000D02*
X113450000Y-109650000D01*
X113450000Y-106350000D02*
X113450000Y-107400000D01*
X111050000Y-106350000D02*
X113450000Y-106350000D01*
X113450000Y-109650000D02*
X113450000Y-108600000D01*
%TO.C,R19*%
X124770000Y-107040000D02*
X124770000Y-107370000D01*
X124770000Y-107370000D02*
X118230000Y-107370000D01*
X118230000Y-107370000D02*
X118230000Y-107040000D01*
X124770000Y-104630000D02*
X118230000Y-104630000D01*
X124770000Y-104960000D02*
X124770000Y-104630000D01*
X118230000Y-104630000D02*
X118230000Y-104960000D01*
%TO.C,R21*%
X118480000Y-113870000D02*
X118480000Y-113540000D01*
X125020000Y-113540000D02*
X125020000Y-113870000D01*
X125020000Y-111460000D02*
X125020000Y-111130000D01*
X118480000Y-111130000D02*
X118480000Y-111460000D01*
X125020000Y-111130000D02*
X118480000Y-111130000D01*
X125020000Y-113870000D02*
X118480000Y-113870000D01*
%TO.C,Q5*%
X103100000Y-79400000D02*
X103100000Y-81200000D01*
X106400000Y-78800000D02*
X106400000Y-81200000D01*
X106400000Y-81200000D02*
X105350000Y-81200000D01*
X103100000Y-81200000D02*
X104150000Y-81200000D01*
%TO.C,R12*%
X89980000Y-125210000D02*
X89980000Y-124880000D01*
X89980000Y-127620000D02*
X96520000Y-127620000D01*
X96520000Y-124880000D02*
X96520000Y-125210000D01*
X96520000Y-127620000D02*
X96520000Y-127290000D01*
X89980000Y-124880000D02*
X96520000Y-124880000D01*
X89980000Y-127290000D02*
X89980000Y-127620000D01*
%TO.C,Q12*%
X111650000Y-116900000D02*
X113450000Y-116900000D01*
X111050000Y-113600000D02*
X113450000Y-113600000D01*
X113450000Y-116900000D02*
X113450000Y-115850000D01*
X113450000Y-113600000D02*
X113450000Y-114650000D01*
%TO.C,Q2*%
X102900000Y-58050000D02*
X102900000Y-60450000D01*
X99600000Y-60450000D02*
X100650000Y-60450000D01*
X99600000Y-58650000D02*
X99600000Y-60450000D01*
X102900000Y-60450000D02*
X101850000Y-60450000D01*
%TO.C,R11*%
X90040000Y-121040000D02*
X90040000Y-121370000D01*
X90040000Y-118960000D02*
X90040000Y-118630000D01*
X90040000Y-121370000D02*
X96580000Y-121370000D01*
X90040000Y-118630000D02*
X96580000Y-118630000D01*
X96580000Y-121370000D02*
X96580000Y-121040000D01*
X96580000Y-118630000D02*
X96580000Y-118960000D01*
%TO.C,Q8*%
X110700000Y-86400000D02*
X110700000Y-85350000D01*
X110700000Y-83100000D02*
X110700000Y-84150000D01*
X108900000Y-86400000D02*
X110700000Y-86400000D01*
X108300000Y-83100000D02*
X110700000Y-83100000D01*
%TO.C,Q3*%
X102600000Y-65150000D02*
X102600000Y-66950000D01*
X105900000Y-66950000D02*
X104850000Y-66950000D01*
X105900000Y-64550000D02*
X105900000Y-66950000D01*
X102600000Y-66950000D02*
X103650000Y-66950000D01*
%TO.C,J4*%
X106450000Y-122700000D02*
X106450000Y-121650000D01*
X106650000Y-136550000D02*
X106650000Y-121850000D01*
X113150000Y-121850000D02*
X115850000Y-121850000D01*
X107500000Y-121650000D02*
X106450000Y-121650000D01*
X115850000Y-121850000D02*
X115850000Y-123750000D01*
X115850000Y-136550000D02*
X106650000Y-136550000D01*
X115850000Y-127750000D02*
X115850000Y-136550000D01*
X106650000Y-121850000D02*
X109250000Y-121850000D01*
%TO.C,Q4*%
X99600000Y-71650000D02*
X99600000Y-73450000D01*
X102900000Y-71050000D02*
X102900000Y-73450000D01*
X99600000Y-73450000D02*
X100650000Y-73450000D01*
X102900000Y-73450000D02*
X101850000Y-73450000D01*
%TO.C,web*%
G36*
X76589295Y-60518132D02*
G01*
X76768263Y-60259617D01*
X77015415Y-60086219D01*
X77039462Y-60075550D01*
X77175856Y-60043372D01*
X77398044Y-60019397D01*
X77680961Y-60003623D01*
X77999544Y-59996053D01*
X78328728Y-59996684D01*
X78643452Y-60005518D01*
X78918650Y-60022554D01*
X79129260Y-60047793D01*
X79238437Y-60075550D01*
X79489767Y-60241020D01*
X79675174Y-60491492D01*
X79791093Y-60819950D01*
X79833962Y-61219376D01*
X79834136Y-61248584D01*
X79802216Y-61652360D01*
X79702900Y-61971146D01*
X79530850Y-62210084D01*
X79280728Y-62374315D01*
X78947198Y-62468982D01*
X78536008Y-62499217D01*
X78297421Y-62502082D01*
X78143104Y-62513452D01*
X78046188Y-62539644D01*
X77979805Y-62586977D01*
X77933271Y-62640938D01*
X77744765Y-62808171D01*
X77483756Y-62942461D01*
X77187937Y-63025451D01*
X77124795Y-63034658D01*
X76860613Y-63066583D01*
X77045865Y-62914817D01*
X77173272Y-62791776D01*
X77261885Y-62672714D01*
X77274620Y-62645639D01*
X77286525Y-62571919D01*
X77245049Y-62509714D01*
X77130512Y-62438074D01*
X77033788Y-62389278D01*
X76766154Y-62200121D01*
X76577782Y-61934514D01*
X76470336Y-61595601D01*
X76443764Y-61274702D01*
X76454106Y-61157257D01*
X77333042Y-61157257D01*
X77337110Y-61381096D01*
X77347980Y-61560911D01*
X77363654Y-61669006D01*
X77371253Y-61686424D01*
X77447390Y-61713203D01*
X77509775Y-61638258D01*
X77551511Y-61470816D01*
X77555361Y-61440104D01*
X77582747Y-61283072D01*
X77628006Y-61210211D01*
X77694311Y-61194310D01*
X77763980Y-61212125D01*
X77801785Y-61283713D01*
X77820932Y-61436288D01*
X77822411Y-61458315D01*
X77846704Y-61635667D01*
X77892973Y-61715206D01*
X77919676Y-61722319D01*
X77968798Y-61691585D01*
X77993847Y-61586602D01*
X78000000Y-61418585D01*
X77997657Y-61361050D01*
X78277899Y-61361050D01*
X78281441Y-61558964D01*
X78296198Y-61668174D01*
X78328366Y-61711022D01*
X78375164Y-61711738D01*
X78430966Y-61681060D01*
X78460821Y-61599506D01*
X78461940Y-61583370D01*
X78722538Y-61583370D01*
X78741743Y-61691163D01*
X78809736Y-61713423D01*
X78819803Y-61711738D01*
X78899837Y-61648802D01*
X78917068Y-61583370D01*
X78874907Y-61485036D01*
X78819803Y-61455001D01*
X78746083Y-61469848D01*
X78722707Y-61568178D01*
X78722538Y-61583370D01*
X78461940Y-61583370D01*
X78471764Y-61441714D01*
X78472429Y-61361050D01*
X78466589Y-61169477D01*
X78444378Y-61063307D01*
X78398762Y-61017174D01*
X78375164Y-61010362D01*
X78322876Y-61013744D01*
X78293373Y-61064109D01*
X78280461Y-61183799D01*
X78277899Y-61361050D01*
X77997657Y-61361050D01*
X77992429Y-61232682D01*
X77962797Y-61124794D01*
X77900727Y-61062392D01*
X77883158Y-61052320D01*
X77746613Y-61013308D01*
X77660839Y-61017371D01*
X77588941Y-61018331D01*
X77578869Y-60995706D01*
X78722538Y-60995706D01*
X78726360Y-61183079D01*
X78743543Y-61284813D01*
X78782668Y-61326326D01*
X78836472Y-61333260D01*
X78900322Y-61322741D01*
X78931973Y-61273746D01*
X78939399Y-61160120D01*
X78933736Y-61014216D01*
X78916380Y-60823892D01*
X78884089Y-60720162D01*
X78828639Y-60678662D01*
X78819803Y-60676662D01*
X78765634Y-60680730D01*
X78736099Y-60734492D01*
X78724174Y-60860989D01*
X78722538Y-60995706D01*
X77578869Y-60995706D01*
X77559587Y-60952392D01*
X77555361Y-60855628D01*
X77547541Y-60777461D01*
X78277899Y-60777461D01*
X78317200Y-60870353D01*
X78389059Y-60888621D01*
X78481950Y-60849320D01*
X78500219Y-60777461D01*
X78460918Y-60684570D01*
X78389059Y-60666302D01*
X78296168Y-60705603D01*
X78277899Y-60777461D01*
X77547541Y-60777461D01*
X77542167Y-60723750D01*
X77491054Y-60671647D01*
X77444201Y-60666302D01*
X77390986Y-60674799D01*
X77358102Y-60714519D01*
X77340715Y-60806809D01*
X77333992Y-60973012D01*
X77333042Y-61157257D01*
X76454106Y-61157257D01*
X76480474Y-60857811D01*
X76589295Y-60518132D01*
G37*
G36*
X76780464Y-62570570D02*
G01*
X76805033Y-62589011D01*
X76881812Y-62656314D01*
X76870497Y-62704492D01*
X76808305Y-62753983D01*
X76689928Y-62823994D01*
X76629247Y-62803592D01*
X76610650Y-62685925D01*
X76610503Y-62667177D01*
X76623581Y-62540587D01*
X76674427Y-62510718D01*
X76780464Y-62570570D01*
G37*
G36*
X74227511Y-64014866D02*
G01*
X74271041Y-64079829D01*
X74276149Y-64167833D01*
X74262377Y-64285935D01*
X74197414Y-64329465D01*
X74109409Y-64334573D01*
X73991308Y-64320801D01*
X73947778Y-64255838D01*
X73942670Y-64167833D01*
X73956442Y-64049732D01*
X74021405Y-64006202D01*
X74109409Y-64001094D01*
X74227511Y-64014866D01*
G37*
G36*
X73609190Y-67002407D02*
G01*
X72608753Y-67002407D01*
X72608753Y-66001969D01*
X73609190Y-66001969D01*
X73609190Y-67002407D01*
G37*
G36*
X73609190Y-56998030D02*
G01*
X72608753Y-56998030D01*
X72608753Y-55997593D01*
X73609190Y-55997593D01*
X73609190Y-56998030D01*
G37*
G36*
X77277462Y-66335448D02*
G01*
X76943983Y-66335448D01*
X76943983Y-65668490D01*
X77277462Y-65668490D01*
X77277462Y-66335448D01*
G37*
G36*
X82231012Y-65348783D02*
G01*
X82274542Y-65413746D01*
X82279650Y-65501750D01*
X82265878Y-65619852D01*
X82200915Y-65663382D01*
X82112910Y-65668490D01*
X81994809Y-65654718D01*
X81951279Y-65589755D01*
X81946171Y-65501750D01*
X81959943Y-65383649D01*
X82024906Y-65340119D01*
X82112910Y-65335011D01*
X82231012Y-65348783D01*
G37*
G36*
X73942670Y-65001532D02*
G01*
X73942670Y-64668052D01*
X74609628Y-64668052D01*
X74609628Y-64501313D01*
X74623400Y-64383211D01*
X74688363Y-64339681D01*
X74776368Y-64334573D01*
X74894469Y-64320801D01*
X74937999Y-64255838D01*
X74943107Y-64167833D01*
X74929335Y-64049732D01*
X74864372Y-64006202D01*
X74776368Y-64001094D01*
X74609628Y-64001094D01*
X74609628Y-63334135D01*
X74442888Y-63334135D01*
X74324787Y-63347907D01*
X74281257Y-63412871D01*
X74276149Y-63500875D01*
X74262377Y-63618977D01*
X74197414Y-63662507D01*
X74109409Y-63667615D01*
X73991308Y-63653843D01*
X73947778Y-63588880D01*
X73942670Y-63500875D01*
X73956442Y-63382773D01*
X74021405Y-63339244D01*
X74109409Y-63334135D01*
X74227511Y-63320363D01*
X74271041Y-63255400D01*
X74276149Y-63167396D01*
X74276149Y-63000656D01*
X75610066Y-63000656D01*
X75610066Y-63167396D01*
X75596294Y-63285497D01*
X75531331Y-63329027D01*
X75443326Y-63334135D01*
X75276586Y-63334135D01*
X75276586Y-64001094D01*
X75443326Y-64001094D01*
X75561428Y-63987322D01*
X75604958Y-63922359D01*
X75610066Y-63834354D01*
X75623838Y-63716253D01*
X75688801Y-63672723D01*
X75776805Y-63667615D01*
X75894907Y-63681387D01*
X75938437Y-63746350D01*
X75943545Y-63834354D01*
X75957317Y-63952456D01*
X76022280Y-63995986D01*
X76110285Y-64001094D01*
X76228386Y-64014866D01*
X76271916Y-64079829D01*
X76277024Y-64167833D01*
X76290796Y-64285935D01*
X76355759Y-64329465D01*
X76443764Y-64334573D01*
X76561865Y-64348345D01*
X76605395Y-64413308D01*
X76610503Y-64501313D01*
X76624275Y-64619414D01*
X76689238Y-64662944D01*
X76777243Y-64668052D01*
X76895345Y-64654280D01*
X76938874Y-64589317D01*
X76943983Y-64501313D01*
X76957755Y-64383211D01*
X77022718Y-64339681D01*
X77110722Y-64334573D01*
X77277462Y-64334573D01*
X77277462Y-63334135D01*
X77444201Y-63334135D01*
X77562303Y-63347907D01*
X77605833Y-63412871D01*
X77610941Y-63500875D01*
X77624713Y-63618977D01*
X77689676Y-63662507D01*
X77777681Y-63667615D01*
X77895782Y-63653843D01*
X77939312Y-63588880D01*
X77944420Y-63500875D01*
X77958192Y-63382773D01*
X78023155Y-63339244D01*
X78111160Y-63334135D01*
X78229261Y-63347907D01*
X78272791Y-63412871D01*
X78277899Y-63500875D01*
X78264127Y-63618977D01*
X78199164Y-63662507D01*
X78111160Y-63667615D01*
X77993058Y-63681387D01*
X77949528Y-63746350D01*
X77944420Y-63834354D01*
X77944420Y-64001094D01*
X78944858Y-64001094D01*
X78944858Y-63834354D01*
X78931086Y-63716253D01*
X78866123Y-63672723D01*
X78778118Y-63667615D01*
X78660017Y-63653843D01*
X78616487Y-63588880D01*
X78611379Y-63500875D01*
X78625151Y-63382773D01*
X78690114Y-63339244D01*
X78778118Y-63334135D01*
X78896220Y-63347907D01*
X78939750Y-63412871D01*
X78944858Y-63500875D01*
X78944858Y-63667615D01*
X79611816Y-63667615D01*
X79611816Y-64334573D01*
X79278337Y-64334573D01*
X79278337Y-65001532D01*
X79445077Y-65001532D01*
X79563178Y-64987760D01*
X79606708Y-64922796D01*
X79611816Y-64834792D01*
X79625588Y-64716690D01*
X79690551Y-64673160D01*
X79778556Y-64668052D01*
X79896657Y-64654280D01*
X79940187Y-64589317D01*
X79945295Y-64501313D01*
X79959067Y-64383211D01*
X80024031Y-64339681D01*
X80112035Y-64334573D01*
X80278775Y-64334573D01*
X80278775Y-65335011D01*
X80945733Y-65335011D01*
X80945733Y-65668490D01*
X80278775Y-65668490D01*
X80278775Y-66001969D01*
X79611816Y-66001969D01*
X79611816Y-66335448D01*
X78944858Y-66335448D01*
X78944858Y-66001969D01*
X79611816Y-66001969D01*
X79611816Y-65835230D01*
X79598044Y-65717128D01*
X79533081Y-65673598D01*
X79445077Y-65668490D01*
X79278337Y-65668490D01*
X79278337Y-65001532D01*
X78944858Y-65001532D01*
X78944858Y-66001969D01*
X77944420Y-66001969D01*
X77944420Y-66668928D01*
X78111160Y-66668928D01*
X78229261Y-66655156D01*
X78272791Y-66590192D01*
X78277899Y-66502188D01*
X78291671Y-66384086D01*
X78356635Y-66340556D01*
X78444639Y-66335448D01*
X78562741Y-66349220D01*
X78606270Y-66414184D01*
X78611379Y-66502188D01*
X78597607Y-66620290D01*
X78532643Y-66663819D01*
X78444639Y-66668928D01*
X78277899Y-66668928D01*
X78277899Y-67335886D01*
X78444639Y-67335886D01*
X78562741Y-67349658D01*
X78606270Y-67414621D01*
X78611379Y-67502626D01*
X78597607Y-67620727D01*
X78532643Y-67664257D01*
X78444639Y-67669365D01*
X78326537Y-67655593D01*
X78283007Y-67590630D01*
X78277899Y-67502626D01*
X78264127Y-67384524D01*
X78199164Y-67340994D01*
X78111160Y-67335886D01*
X77993058Y-67349658D01*
X77949528Y-67414621D01*
X77944420Y-67502626D01*
X77944420Y-67669365D01*
X76610503Y-67669365D01*
X76610503Y-67502626D01*
X76596731Y-67384524D01*
X76531768Y-67340994D01*
X76443764Y-67335886D01*
X76277024Y-67335886D01*
X76277024Y-66668928D01*
X75943545Y-66668928D01*
X75943545Y-67335886D01*
X75776805Y-67335886D01*
X75658704Y-67349658D01*
X75615174Y-67414621D01*
X75610066Y-67502626D01*
X75610066Y-67669365D01*
X74943107Y-67669365D01*
X74943107Y-67335886D01*
X75610066Y-67335886D01*
X75610066Y-67169146D01*
X75596294Y-67051045D01*
X75531331Y-67007515D01*
X75443326Y-67002407D01*
X75325224Y-66988635D01*
X75281695Y-66923672D01*
X75276586Y-66835667D01*
X75262814Y-66717566D01*
X75197851Y-66674036D01*
X75109847Y-66668928D01*
X74991745Y-66655156D01*
X74948215Y-66590192D01*
X74943107Y-66502188D01*
X74929335Y-66384086D01*
X74864372Y-66340556D01*
X74776368Y-66335448D01*
X74609628Y-66335448D01*
X74609628Y-66168709D01*
X74943107Y-66168709D01*
X74956879Y-66286810D01*
X75021842Y-66330340D01*
X75109847Y-66335448D01*
X75227948Y-66349220D01*
X75271478Y-66414184D01*
X75276586Y-66502188D01*
X75290358Y-66620290D01*
X75355322Y-66663819D01*
X75443326Y-66668928D01*
X75610066Y-66668928D01*
X75610066Y-66001969D01*
X74943107Y-66001969D01*
X74943107Y-66168709D01*
X74609628Y-66168709D01*
X74609628Y-65168271D01*
X74943107Y-65168271D01*
X74956879Y-65286373D01*
X75021842Y-65329903D01*
X75109847Y-65335011D01*
X75227948Y-65348783D01*
X75271478Y-65413746D01*
X75276586Y-65501750D01*
X75276586Y-65668490D01*
X75943545Y-65668490D01*
X75943545Y-65335011D01*
X76610503Y-65335011D01*
X76610503Y-66001969D01*
X75943545Y-66001969D01*
X75943545Y-66335448D01*
X76943983Y-66335448D01*
X76943983Y-66502188D01*
X76930211Y-66620290D01*
X76865247Y-66663819D01*
X76777243Y-66668928D01*
X76659141Y-66682700D01*
X76615611Y-66747663D01*
X76610503Y-66835667D01*
X76624275Y-66953769D01*
X76689238Y-66997299D01*
X76777243Y-67002407D01*
X76895345Y-67016179D01*
X76938874Y-67081142D01*
X76943983Y-67169146D01*
X76957755Y-67287248D01*
X77022718Y-67330778D01*
X77110722Y-67335886D01*
X77610941Y-67335886D01*
X77944420Y-67335886D01*
X77944420Y-66668928D01*
X77610941Y-66668928D01*
X77610941Y-67335886D01*
X77110722Y-67335886D01*
X77228824Y-67322114D01*
X77272354Y-67257151D01*
X77277462Y-67169146D01*
X77263690Y-67051045D01*
X77198727Y-67007515D01*
X77110722Y-67002407D01*
X76992621Y-66988635D01*
X76949091Y-66923672D01*
X76943983Y-66835667D01*
X76943983Y-66668928D01*
X77610941Y-66668928D01*
X77610941Y-66001969D01*
X77777681Y-66001969D01*
X77895782Y-65988197D01*
X77939312Y-65923234D01*
X77944420Y-65835230D01*
X77958192Y-65717128D01*
X78023155Y-65673598D01*
X78111160Y-65668490D01*
X78229261Y-65654718D01*
X78272791Y-65589755D01*
X78277899Y-65501750D01*
X78291671Y-65383649D01*
X78356635Y-65340119D01*
X78444639Y-65335011D01*
X78611379Y-65335011D01*
X78611379Y-64668052D01*
X78444639Y-64668052D01*
X78326537Y-64681824D01*
X78283007Y-64746787D01*
X78277899Y-64834792D01*
X78264127Y-64952894D01*
X78199164Y-64996423D01*
X78111160Y-65001532D01*
X77993058Y-65015303D01*
X77949528Y-65080267D01*
X77944420Y-65168271D01*
X77930648Y-65286373D01*
X77865685Y-65329903D01*
X77777681Y-65335011D01*
X77610941Y-65335011D01*
X77610941Y-64668052D01*
X77444201Y-64668052D01*
X77326100Y-64681824D01*
X77282570Y-64746787D01*
X77277462Y-64834792D01*
X77263690Y-64952894D01*
X77198727Y-64996423D01*
X77110722Y-65001532D01*
X76992621Y-65015303D01*
X76949091Y-65080267D01*
X76943983Y-65168271D01*
X76930211Y-65286373D01*
X76865247Y-65329903D01*
X76777243Y-65335011D01*
X76659141Y-65321239D01*
X76615611Y-65256276D01*
X76610503Y-65168271D01*
X76596731Y-65050170D01*
X76531768Y-65006640D01*
X76443764Y-65001532D01*
X76325662Y-64987760D01*
X76282132Y-64922796D01*
X76277024Y-64834792D01*
X76263252Y-64716690D01*
X76198289Y-64673160D01*
X76110285Y-64668052D01*
X75992183Y-64654280D01*
X75948653Y-64589317D01*
X75943545Y-64501313D01*
X75929773Y-64383211D01*
X75864810Y-64339681D01*
X75776805Y-64334573D01*
X75610066Y-64334573D01*
X75610066Y-65335011D01*
X75443326Y-65335011D01*
X75325224Y-65321239D01*
X75281695Y-65256276D01*
X75276586Y-65168271D01*
X75262814Y-65050170D01*
X75197851Y-65006640D01*
X75109847Y-65001532D01*
X74991745Y-65015303D01*
X74948215Y-65080267D01*
X74943107Y-65168271D01*
X74609628Y-65168271D01*
X74609628Y-65001532D01*
X73942670Y-65001532D01*
G37*
G36*
X81897533Y-64014866D02*
G01*
X81941063Y-64079829D01*
X81946171Y-64167833D01*
X81932399Y-64285935D01*
X81867436Y-64329465D01*
X81779431Y-64334573D01*
X81661330Y-64320801D01*
X81617800Y-64255838D01*
X81612692Y-64167833D01*
X81626463Y-64049732D01*
X81691427Y-64006202D01*
X81779431Y-64001094D01*
X81897533Y-64014866D01*
G37*
G36*
X78534509Y-62787658D02*
G01*
X78598792Y-62825335D01*
X78611379Y-62889496D01*
X78599211Y-62951581D01*
X78545759Y-62985129D01*
X78425603Y-62998613D01*
X78277899Y-63000656D01*
X77944420Y-63000656D01*
X78055580Y-62889496D01*
X78227073Y-62796605D01*
X78389059Y-62778337D01*
X78534509Y-62787658D01*
G37*
G36*
X83613567Y-56998030D02*
G01*
X82613129Y-56998030D01*
X82613129Y-55997593D01*
X83613567Y-55997593D01*
X83613567Y-56998030D01*
G37*
G36*
X78944858Y-57664989D02*
G01*
X79111597Y-57664989D01*
X79229699Y-57651217D01*
X79273229Y-57586254D01*
X79278337Y-57498249D01*
X79292109Y-57380148D01*
X79357072Y-57336618D01*
X79445077Y-57331510D01*
X79563178Y-57345282D01*
X79606708Y-57410245D01*
X79611816Y-57498249D01*
X79598044Y-57616351D01*
X79533081Y-57659881D01*
X79445077Y-57664989D01*
X79326975Y-57678761D01*
X79283445Y-57743724D01*
X79278337Y-57831728D01*
X79292109Y-57949830D01*
X79357072Y-57993360D01*
X79445077Y-57998468D01*
X79563178Y-58012240D01*
X79606708Y-58077203D01*
X79611816Y-58165208D01*
X79598044Y-58283309D01*
X79533081Y-58326839D01*
X79445077Y-58331947D01*
X79326975Y-58318175D01*
X79283445Y-58253212D01*
X79278337Y-58165208D01*
X79264565Y-58047106D01*
X79199602Y-58003576D01*
X79111597Y-57998468D01*
X78993496Y-57984696D01*
X78949966Y-57919733D01*
X78944858Y-57831728D01*
X78931086Y-57713627D01*
X78866123Y-57670097D01*
X78778118Y-57664989D01*
X78660017Y-57651217D01*
X78616487Y-57586254D01*
X78611379Y-57498249D01*
X78597607Y-57380148D01*
X78532643Y-57336618D01*
X78444639Y-57331510D01*
X78326537Y-57345282D01*
X78283007Y-57410245D01*
X78277899Y-57498249D01*
X78264127Y-57616351D01*
X78199164Y-57659881D01*
X78111160Y-57664989D01*
X77993058Y-57651217D01*
X77949528Y-57586254D01*
X77944420Y-57498249D01*
X77930648Y-57380148D01*
X77865685Y-57336618D01*
X77777681Y-57331510D01*
X77659579Y-57345282D01*
X77616049Y-57410245D01*
X77610941Y-57498249D01*
X77597169Y-57616351D01*
X77532206Y-57659881D01*
X77444201Y-57664989D01*
X77326100Y-57651217D01*
X77282570Y-57586254D01*
X77277462Y-57498249D01*
X77291234Y-57380148D01*
X77356197Y-57336618D01*
X77444201Y-57331510D01*
X77562303Y-57317738D01*
X77605833Y-57252774D01*
X77610941Y-57164770D01*
X77610941Y-56998030D01*
X78944858Y-56998030D01*
X78944858Y-57664989D01*
G37*
G36*
X79229699Y-56678323D02*
G01*
X79273229Y-56743286D01*
X79278337Y-56831291D01*
X79264565Y-56949392D01*
X79199602Y-56992922D01*
X79111597Y-56998030D01*
X78944858Y-56998030D01*
X78944858Y-56831291D01*
X78958630Y-56713189D01*
X79023593Y-56669659D01*
X79111597Y-56664551D01*
X79229699Y-56678323D01*
G37*
G36*
X80945733Y-59332385D02*
G01*
X80778993Y-59332385D01*
X80660892Y-59318613D01*
X80617362Y-59253650D01*
X80612254Y-59165645D01*
X80598482Y-59047544D01*
X80533519Y-59004014D01*
X80445514Y-58998906D01*
X80327413Y-58985134D01*
X80283883Y-58920171D01*
X80278775Y-58832166D01*
X80278775Y-58665426D01*
X80945733Y-58665426D01*
X80945733Y-59332385D01*
G37*
G36*
X72226636Y-63681387D02*
G01*
X72270165Y-63746350D01*
X72275274Y-63834354D01*
X72261502Y-63952456D01*
X72196538Y-63995986D01*
X72108534Y-64001094D01*
X71990432Y-63987322D01*
X71946902Y-63922359D01*
X71941794Y-63834354D01*
X71955566Y-63716253D01*
X72020530Y-63672723D01*
X72108534Y-63667615D01*
X72226636Y-63681387D01*
G37*
G36*
X74276149Y-55330634D02*
G01*
X74276149Y-57664989D01*
X71941794Y-57664989D01*
X71941794Y-57331510D01*
X72275274Y-57331510D01*
X73942670Y-57331510D01*
X73942670Y-55664114D01*
X72275274Y-55664114D01*
X72275274Y-57331510D01*
X71941794Y-57331510D01*
X71941794Y-55330634D01*
X74276149Y-55330634D01*
G37*
G36*
X79945295Y-66668928D02*
G01*
X79945295Y-66335448D01*
X80945733Y-66335448D01*
X80945733Y-66668928D01*
X80278775Y-66668928D01*
X80278775Y-66835667D01*
X80265003Y-66953769D01*
X80200040Y-66997299D01*
X80112035Y-67002407D01*
X79993933Y-67016179D01*
X79950404Y-67081142D01*
X79945295Y-67169146D01*
X79959067Y-67287248D01*
X80024031Y-67330778D01*
X80112035Y-67335886D01*
X80230137Y-67349658D01*
X80273667Y-67414621D01*
X80278775Y-67502626D01*
X80265003Y-67620727D01*
X80200040Y-67664257D01*
X80112035Y-67669365D01*
X79993933Y-67655593D01*
X79950404Y-67590630D01*
X79945295Y-67502626D01*
X79931523Y-67384524D01*
X79866560Y-67340994D01*
X79778556Y-67335886D01*
X79660454Y-67349658D01*
X79616924Y-67414621D01*
X79611816Y-67502626D01*
X79598044Y-67620727D01*
X79533081Y-67664257D01*
X79445077Y-67669365D01*
X79326975Y-67655593D01*
X79283445Y-67590630D01*
X79278337Y-67502626D01*
X79264565Y-67384524D01*
X79199602Y-67340994D01*
X79111597Y-67335886D01*
X78944858Y-67335886D01*
X78944858Y-67169146D01*
X79278337Y-67169146D01*
X79292109Y-67287248D01*
X79357072Y-67330778D01*
X79445077Y-67335886D01*
X79563178Y-67322114D01*
X79606708Y-67257151D01*
X79611816Y-67169146D01*
X79598044Y-67051045D01*
X79533081Y-67007515D01*
X79445077Y-67002407D01*
X79326975Y-67016179D01*
X79283445Y-67081142D01*
X79278337Y-67169146D01*
X78944858Y-67169146D01*
X78944858Y-66668928D01*
X79945295Y-66668928D01*
G37*
G36*
X74276149Y-65335011D02*
G01*
X74276149Y-67669365D01*
X71941794Y-67669365D01*
X71941794Y-67335886D01*
X72275274Y-67335886D01*
X73942670Y-67335886D01*
X73942670Y-65668490D01*
X72275274Y-65668490D01*
X72275274Y-67335886D01*
X71941794Y-67335886D01*
X71941794Y-65335011D01*
X74276149Y-65335011D01*
G37*
G36*
X83898408Y-58012240D02*
G01*
X83941938Y-58077203D01*
X83947046Y-58165208D01*
X83933274Y-58283309D01*
X83868311Y-58326839D01*
X83780306Y-58331947D01*
X83662205Y-58318175D01*
X83618675Y-58253212D01*
X83613567Y-58165208D01*
X83627339Y-58047106D01*
X83692302Y-58003576D01*
X83780306Y-57998468D01*
X83898408Y-58012240D01*
G37*
G36*
X82279650Y-62333698D02*
G01*
X82112910Y-62333698D01*
X81994809Y-62347470D01*
X81951279Y-62412433D01*
X81946171Y-62500437D01*
X81932399Y-62618539D01*
X81867436Y-62662069D01*
X81779431Y-62667177D01*
X81612692Y-62667177D01*
X81612692Y-62000219D01*
X81946171Y-62000219D01*
X81946171Y-61333260D01*
X82279650Y-61333260D01*
X82279650Y-62333698D01*
G37*
G36*
X73609190Y-65001532D02*
G01*
X71941794Y-65001532D01*
X71941794Y-64668052D01*
X73609190Y-64668052D01*
X73609190Y-65001532D01*
G37*
G36*
X84280525Y-55330634D02*
G01*
X84280525Y-57664989D01*
X81946171Y-57664989D01*
X81946171Y-57331510D01*
X82279650Y-57331510D01*
X83947046Y-57331510D01*
X83947046Y-55664114D01*
X82279650Y-55664114D01*
X82279650Y-57331510D01*
X81946171Y-57331510D01*
X81946171Y-55330634D01*
X84280525Y-55330634D01*
G37*
G36*
X74609628Y-61666739D02*
G01*
X73942670Y-61666739D01*
X73942670Y-61833479D01*
X73956442Y-61951581D01*
X74021405Y-61995110D01*
X74109409Y-62000219D01*
X74227511Y-62013991D01*
X74271041Y-62078954D01*
X74276149Y-62166958D01*
X74276149Y-62333698D01*
X73609190Y-62333698D01*
X73609190Y-61333260D01*
X74609628Y-61333260D01*
X74609628Y-61666739D01*
G37*
G36*
X81564054Y-66682700D02*
G01*
X81607583Y-66747663D01*
X81612692Y-66835667D01*
X81598920Y-66953769D01*
X81533956Y-66997299D01*
X81445952Y-67002407D01*
X81279212Y-67002407D01*
X81279212Y-67669365D01*
X80945733Y-67669365D01*
X80945733Y-67002407D01*
X81112473Y-67002407D01*
X81230574Y-66988635D01*
X81274104Y-66923672D01*
X81279212Y-66835667D01*
X81292984Y-66717566D01*
X81357947Y-66674036D01*
X81445952Y-66668928D01*
X81564054Y-66682700D01*
G37*
G36*
X76277024Y-63346297D02*
G01*
X76458918Y-63325062D01*
X76581991Y-63318202D01*
X76625716Y-63358392D01*
X76620679Y-63476219D01*
X76619577Y-63485721D01*
X76591409Y-63611848D01*
X76525317Y-63660908D01*
X76437683Y-63667615D01*
X76323736Y-63653116D01*
X76281770Y-63586153D01*
X76277024Y-63500875D01*
X76263252Y-63382773D01*
X76198289Y-63339244D01*
X76110285Y-63334135D01*
X75943545Y-63334135D01*
X75943545Y-62667177D01*
X75610066Y-62667177D01*
X75610066Y-62000219D01*
X76277024Y-62000219D01*
X76277024Y-63346297D01*
G37*
G36*
X83947046Y-67335886D02*
G01*
X84113786Y-67335886D01*
X84231887Y-67349658D01*
X84275417Y-67414621D01*
X84280525Y-67502626D01*
X84280525Y-67669365D01*
X81946171Y-67669365D01*
X81946171Y-67335886D01*
X83280088Y-67335886D01*
X83280088Y-67169146D01*
X83293860Y-67051045D01*
X83358823Y-67007515D01*
X83446827Y-67002407D01*
X83564929Y-66988635D01*
X83608459Y-66923672D01*
X83613567Y-66835667D01*
X83613567Y-66668928D01*
X83947046Y-66668928D01*
X83947046Y-67335886D01*
G37*
G36*
X80945733Y-64668052D02*
G01*
X80945733Y-64001094D01*
X80278775Y-64001094D01*
X80278775Y-63834354D01*
X80265003Y-63716253D01*
X80200040Y-63672723D01*
X80112035Y-63667615D01*
X80612254Y-63667615D01*
X80778993Y-63667615D01*
X80897095Y-63681387D01*
X80940625Y-63746350D01*
X80945733Y-63834354D01*
X80959505Y-63952456D01*
X81024468Y-63995986D01*
X81112473Y-64001094D01*
X81230574Y-64014866D01*
X81274104Y-64079829D01*
X81279212Y-64167833D01*
X81292984Y-64285935D01*
X81357947Y-64329465D01*
X81445952Y-64334573D01*
X81564054Y-64348345D01*
X81607583Y-64413308D01*
X81612692Y-64501313D01*
X81626463Y-64619414D01*
X81691427Y-64662944D01*
X81779431Y-64668052D01*
X81897533Y-64654280D01*
X81941063Y-64589317D01*
X81946171Y-64501313D01*
X81959943Y-64383211D01*
X82024906Y-64339681D01*
X82112910Y-64334573D01*
X82231012Y-64320801D01*
X82274542Y-64255838D01*
X82279650Y-64167833D01*
X82265878Y-64049732D01*
X82200915Y-64006202D01*
X82112910Y-64001094D01*
X81994809Y-63987322D01*
X81951279Y-63922359D01*
X81946171Y-63834354D01*
X81946171Y-63667615D01*
X80945733Y-63667615D01*
X80945733Y-63500875D01*
X80959505Y-63382773D01*
X81024468Y-63339244D01*
X81112473Y-63334135D01*
X81230574Y-63320363D01*
X81274104Y-63255400D01*
X81279212Y-63167396D01*
X81279212Y-63000656D01*
X80612254Y-63000656D01*
X80612254Y-63667615D01*
X80112035Y-63667615D01*
X79993933Y-63653843D01*
X79950404Y-63588880D01*
X79945295Y-63500875D01*
X79945295Y-63334135D01*
X79278337Y-63334135D01*
X79278337Y-63167396D01*
X79264565Y-63049294D01*
X79199602Y-63005764D01*
X79111597Y-63000656D01*
X78988368Y-62982273D01*
X78945928Y-62916242D01*
X78944858Y-62895443D01*
X78993815Y-62786521D01*
X79126484Y-62728487D01*
X79199513Y-62722757D01*
X79261632Y-62771131D01*
X79278337Y-62861707D01*
X79296283Y-62961010D01*
X79372568Y-62997338D01*
X79445077Y-63000656D01*
X79563178Y-62986884D01*
X79606708Y-62921921D01*
X79611816Y-62833917D01*
X79594173Y-62711647D01*
X79528991Y-62668764D01*
X79501898Y-62667177D01*
X79456239Y-62652785D01*
X79478451Y-62600809D01*
X79576478Y-62498046D01*
X79638729Y-62439732D01*
X79777674Y-62299639D01*
X79881219Y-62173116D01*
X79919132Y-62106252D01*
X79995726Y-62020423D01*
X80115780Y-62000219D01*
X80231321Y-62014428D01*
X80273888Y-62080598D01*
X80278775Y-62166958D01*
X80265003Y-62285060D01*
X80200040Y-62328590D01*
X80112035Y-62333698D01*
X79945295Y-62333698D01*
X79945295Y-63000656D01*
X80112035Y-63000656D01*
X80230137Y-62986884D01*
X80273667Y-62921921D01*
X80278775Y-62833917D01*
X80278775Y-62667177D01*
X80945733Y-62667177D01*
X81279212Y-62667177D01*
X81445952Y-62667177D01*
X81564054Y-62680949D01*
X81607583Y-62745912D01*
X81612692Y-62833917D01*
X81626463Y-62952018D01*
X81691427Y-62995548D01*
X81779431Y-63000656D01*
X81897533Y-62986884D01*
X81941063Y-62921921D01*
X81946171Y-62833917D01*
X81959943Y-62715815D01*
X82024906Y-62672285D01*
X82112910Y-62667177D01*
X82231012Y-62680949D01*
X82274542Y-62745912D01*
X82279650Y-62833917D01*
X82293422Y-62952018D01*
X82358385Y-62995548D01*
X82446390Y-63000656D01*
X82564491Y-63014428D01*
X82608021Y-63079391D01*
X82613129Y-63167396D01*
X82613129Y-63334135D01*
X81946171Y-63334135D01*
X81946171Y-63667615D01*
X82946608Y-63667615D01*
X82946608Y-64334573D01*
X82779869Y-64334573D01*
X82661767Y-64348345D01*
X82618237Y-64413308D01*
X82613129Y-64501313D01*
X82626901Y-64619414D01*
X82691864Y-64662944D01*
X82779869Y-64668052D01*
X82897970Y-64654280D01*
X82941500Y-64589317D01*
X82946608Y-64501313D01*
X82960380Y-64383211D01*
X83025344Y-64339681D01*
X83113348Y-64334573D01*
X83280088Y-64334573D01*
X83280088Y-63667615D01*
X83113348Y-63667615D01*
X82995246Y-63653843D01*
X82951716Y-63588880D01*
X82946608Y-63500875D01*
X82960380Y-63382773D01*
X83025344Y-63339244D01*
X83113348Y-63334135D01*
X83231450Y-63320363D01*
X83274979Y-63255400D01*
X83280088Y-63167396D01*
X83293860Y-63049294D01*
X83358823Y-63005764D01*
X83446827Y-63000656D01*
X83564929Y-63014428D01*
X83608459Y-63079391D01*
X83613567Y-63167396D01*
X83627339Y-63285497D01*
X83692302Y-63329027D01*
X83780306Y-63334135D01*
X83898408Y-63320363D01*
X83941938Y-63255400D01*
X83947046Y-63167396D01*
X83933274Y-63049294D01*
X83868311Y-63005764D01*
X83780306Y-63000656D01*
X83662205Y-62986884D01*
X83618675Y-62921921D01*
X83613567Y-62833917D01*
X83613567Y-62667177D01*
X82613129Y-62667177D01*
X82613129Y-62333698D01*
X83280088Y-62333698D01*
X83280088Y-61666739D01*
X83113348Y-61666739D01*
X82995246Y-61652967D01*
X82951716Y-61588004D01*
X82946608Y-61500000D01*
X82932836Y-61381898D01*
X82867873Y-61338368D01*
X82779869Y-61333260D01*
X82661767Y-61319488D01*
X82618237Y-61254525D01*
X82613129Y-61166521D01*
X82613129Y-60999781D01*
X81612692Y-60999781D01*
X81612692Y-61166521D01*
X81598920Y-61284622D01*
X81533956Y-61328152D01*
X81445952Y-61333260D01*
X81327850Y-61347032D01*
X81284320Y-61411995D01*
X81279212Y-61500000D01*
X81292984Y-61618101D01*
X81357947Y-61661631D01*
X81445952Y-61666739D01*
X81564054Y-61680511D01*
X81607583Y-61745475D01*
X81612692Y-61833479D01*
X81598920Y-61951581D01*
X81533956Y-61995110D01*
X81445952Y-62000219D01*
X81279212Y-62000219D01*
X81279212Y-62667177D01*
X80945733Y-62667177D01*
X80945733Y-62000219D01*
X80778993Y-62000219D01*
X80660892Y-61986447D01*
X80617362Y-61921483D01*
X80612254Y-61833479D01*
X80626026Y-61715377D01*
X80690989Y-61671847D01*
X80778993Y-61666739D01*
X80897095Y-61652967D01*
X80940625Y-61588004D01*
X80945733Y-61500000D01*
X80931961Y-61381898D01*
X80866998Y-61338368D01*
X80778993Y-61333260D01*
X80660892Y-61319488D01*
X80617362Y-61254525D01*
X80612254Y-61166521D01*
X80626026Y-61048419D01*
X80690989Y-61004889D01*
X80778993Y-60999781D01*
X80897095Y-60986009D01*
X80940625Y-60921046D01*
X80945733Y-60833041D01*
X80959505Y-60714940D01*
X81024468Y-60671410D01*
X81112473Y-60666302D01*
X81230574Y-60680074D01*
X81274104Y-60745037D01*
X81279212Y-60833041D01*
X81292984Y-60951143D01*
X81357947Y-60994673D01*
X81445952Y-60999781D01*
X81564054Y-60986009D01*
X81607583Y-60921046D01*
X81612692Y-60833041D01*
X81612692Y-60666302D01*
X82613129Y-60666302D01*
X82613129Y-60833041D01*
X82626901Y-60951143D01*
X82691864Y-60994673D01*
X82779869Y-60999781D01*
X82897970Y-60986009D01*
X82941500Y-60921046D01*
X82946608Y-60833041D01*
X82960380Y-60714940D01*
X83025344Y-60671410D01*
X83113348Y-60666302D01*
X83231450Y-60652530D01*
X83274979Y-60587567D01*
X83280088Y-60499562D01*
X83280088Y-60332823D01*
X82613129Y-60332823D01*
X82613129Y-59665864D01*
X82779869Y-59665864D01*
X82897970Y-59679636D01*
X82941500Y-59744599D01*
X82946608Y-59832604D01*
X82960380Y-59950705D01*
X83025344Y-59994235D01*
X83113348Y-59999343D01*
X83231450Y-59985571D01*
X83274979Y-59920608D01*
X83280088Y-59832604D01*
X83266316Y-59714502D01*
X83201352Y-59670972D01*
X83113348Y-59665864D01*
X82946608Y-59665864D01*
X82946608Y-58665426D01*
X81946171Y-58665426D01*
X81946171Y-59332385D01*
X82112910Y-59332385D01*
X82231012Y-59318613D01*
X82274542Y-59253650D01*
X82279650Y-59165645D01*
X82293422Y-59047544D01*
X82358385Y-59004014D01*
X82446390Y-58998906D01*
X82613129Y-58998906D01*
X82613129Y-59665864D01*
X81946171Y-59665864D01*
X81946171Y-59999343D01*
X81279212Y-59999343D01*
X81279212Y-60332823D01*
X80278775Y-60332823D01*
X80278775Y-60999781D01*
X80277284Y-61282882D01*
X80271054Y-61472921D01*
X80257446Y-61587978D01*
X80233823Y-61646131D01*
X80197547Y-61665459D01*
X80181510Y-61666398D01*
X80134274Y-61653326D01*
X80104838Y-61600608D01*
X80088890Y-61487380D01*
X80082116Y-61292780D01*
X80080958Y-61180074D01*
X80069135Y-60893760D01*
X80039836Y-60674569D01*
X80001723Y-60555142D01*
X79953149Y-60403913D01*
X79937128Y-60222842D01*
X79937787Y-60207768D01*
X79938674Y-60071405D01*
X79903444Y-60012886D01*
X79807452Y-59999488D01*
X79780807Y-59999343D01*
X79611816Y-59999343D01*
X79611816Y-58998906D01*
X78944858Y-58998906D01*
X78944858Y-59165645D01*
X78958630Y-59283747D01*
X79023593Y-59327277D01*
X79111597Y-59332385D01*
X79229699Y-59346157D01*
X79273229Y-59411120D01*
X79278337Y-59499125D01*
X79264565Y-59617226D01*
X79199602Y-59660756D01*
X79111597Y-59665864D01*
X78993496Y-59652092D01*
X78949966Y-59587129D01*
X78944858Y-59499125D01*
X78931086Y-59381023D01*
X78866123Y-59337493D01*
X78778118Y-59332385D01*
X78666092Y-59343229D01*
X78620144Y-59398234D01*
X78611379Y-59526914D01*
X78611379Y-59721444D01*
X78264004Y-59712549D01*
X78115784Y-59705216D01*
X78054103Y-59694310D01*
X78090863Y-59682067D01*
X78097265Y-59681238D01*
X78222781Y-59651970D01*
X78271364Y-59584278D01*
X78277899Y-59495603D01*
X78263717Y-59379909D01*
X78197621Y-59337285D01*
X78111160Y-59332385D01*
X77993058Y-59318613D01*
X77949528Y-59253650D01*
X77944420Y-59165645D01*
X77944420Y-58998906D01*
X77277462Y-58998906D01*
X77277462Y-59665864D01*
X77110722Y-59665864D01*
X76987360Y-59687018D01*
X76943983Y-59737250D01*
X76900255Y-59811145D01*
X76793365Y-59897275D01*
X76777243Y-59907132D01*
X76610503Y-60005628D01*
X76610503Y-59665864D01*
X75943545Y-59665864D01*
X75943545Y-60166083D01*
X75944651Y-60402878D01*
X75951932Y-60549903D01*
X75971328Y-60628552D01*
X76008782Y-60660213D01*
X76070236Y-60666277D01*
X76082495Y-60666302D01*
X76192908Y-60696821D01*
X76219739Y-60793426D01*
X76187708Y-60911865D01*
X76125776Y-60970471D01*
X75985326Y-60996854D01*
X75882019Y-60999781D01*
X75719760Y-61003644D01*
X75639669Y-61027077D01*
X75612768Y-61087848D01*
X75610066Y-61166521D01*
X75623838Y-61284622D01*
X75688801Y-61328152D01*
X75776805Y-61333260D01*
X75894907Y-61347032D01*
X75938437Y-61411995D01*
X75943545Y-61500000D01*
X75929773Y-61618101D01*
X75864810Y-61661631D01*
X75776805Y-61666739D01*
X75658704Y-61652967D01*
X75615174Y-61588004D01*
X75610066Y-61500000D01*
X75596294Y-61381898D01*
X75531331Y-61338368D01*
X75443326Y-61333260D01*
X75325224Y-61347032D01*
X75281695Y-61411995D01*
X75276586Y-61500000D01*
X75262814Y-61618101D01*
X75197851Y-61661631D01*
X75109847Y-61666739D01*
X74991745Y-61680511D01*
X74948215Y-61745475D01*
X74943107Y-61833479D01*
X74956879Y-61951581D01*
X75021842Y-61995110D01*
X75109847Y-62000219D01*
X75227948Y-62013991D01*
X75271478Y-62078954D01*
X75276586Y-62166958D01*
X75276586Y-62333698D01*
X74609628Y-62333698D01*
X74609628Y-62500437D01*
X74595856Y-62618539D01*
X74530893Y-62662069D01*
X74442888Y-62667177D01*
X74324787Y-62680949D01*
X74281257Y-62745912D01*
X74276149Y-62833917D01*
X74276149Y-63000656D01*
X73609190Y-63000656D01*
X73609190Y-63167396D01*
X73595418Y-63285497D01*
X73530455Y-63329027D01*
X73442451Y-63334135D01*
X73324349Y-63347907D01*
X73280819Y-63412871D01*
X73275711Y-63500875D01*
X73289483Y-63618977D01*
X73354446Y-63662507D01*
X73442451Y-63667615D01*
X73609190Y-63667615D01*
X73609190Y-64334573D01*
X73275711Y-64334573D01*
X73275711Y-63667615D01*
X72942232Y-63667615D01*
X72942232Y-64334573D01*
X72608753Y-64334573D01*
X72608753Y-63334135D01*
X71941794Y-63334135D01*
X71941794Y-62000219D01*
X72275274Y-62000219D01*
X72275274Y-63000656D01*
X72608753Y-63000656D01*
X72608753Y-61666739D01*
X71941794Y-61666739D01*
X71941794Y-60999781D01*
X72108534Y-60999781D01*
X72226636Y-61013553D01*
X72270165Y-61078516D01*
X72275274Y-61166521D01*
X72289046Y-61284622D01*
X72354009Y-61328152D01*
X72442013Y-61333260D01*
X72560115Y-61347032D01*
X72603645Y-61411995D01*
X72608753Y-61500000D01*
X72622525Y-61618101D01*
X72687488Y-61661631D01*
X72775492Y-61666739D01*
X72942232Y-61666739D01*
X72942232Y-60999781D01*
X72775492Y-60999781D01*
X72657391Y-60986009D01*
X72613861Y-60921046D01*
X72608753Y-60833041D01*
X72608753Y-60666302D01*
X71941794Y-60666302D01*
X71941794Y-60499562D01*
X71955566Y-60381461D01*
X72020530Y-60337931D01*
X72108534Y-60332823D01*
X72226636Y-60319051D01*
X72270165Y-60254087D01*
X72275274Y-60166083D01*
X72261502Y-60047981D01*
X72196538Y-60004451D01*
X72108534Y-59999343D01*
X71941794Y-59999343D01*
X71941794Y-59832604D01*
X72275274Y-59832604D01*
X72289046Y-59950705D01*
X72354009Y-59994235D01*
X72442013Y-59999343D01*
X72560115Y-60013115D01*
X72603645Y-60078078D01*
X72608753Y-60166083D01*
X72622525Y-60284185D01*
X72687488Y-60327714D01*
X72775492Y-60332823D01*
X72893594Y-60346595D01*
X72937124Y-60411558D01*
X72942232Y-60499562D01*
X72956004Y-60617664D01*
X73020967Y-60661194D01*
X73108972Y-60666302D01*
X73275711Y-60666302D01*
X73275711Y-62000219D01*
X72942232Y-62000219D01*
X72942232Y-62667177D01*
X74276149Y-62667177D01*
X74276149Y-62500437D01*
X74289921Y-62382336D01*
X74354884Y-62338806D01*
X74442888Y-62333698D01*
X74609628Y-62333698D01*
X74609628Y-61666739D01*
X74776368Y-61666739D01*
X74894469Y-61652967D01*
X74937999Y-61588004D01*
X74943107Y-61500000D01*
X74956879Y-61381898D01*
X75021842Y-61338368D01*
X75109847Y-61333260D01*
X75227948Y-61319488D01*
X75271478Y-61254525D01*
X75276586Y-61166521D01*
X75290358Y-61048419D01*
X75355322Y-61004889D01*
X75443326Y-60999781D01*
X75610066Y-60999781D01*
X75610066Y-60332823D01*
X75276586Y-60332823D01*
X75276586Y-60999781D01*
X75109847Y-60999781D01*
X74991745Y-61013553D01*
X74948215Y-61078516D01*
X74943107Y-61166521D01*
X74929335Y-61284622D01*
X74864372Y-61328152D01*
X74776368Y-61333260D01*
X74609628Y-61333260D01*
X74609628Y-60332823D01*
X73942670Y-60332823D01*
X73942670Y-59999343D01*
X74609628Y-59999343D01*
X74609628Y-59832604D01*
X74943107Y-59832604D01*
X74956879Y-59950705D01*
X75021842Y-59994235D01*
X75109847Y-59999343D01*
X75227948Y-59985571D01*
X75271478Y-59920608D01*
X75276586Y-59832604D01*
X75262814Y-59714502D01*
X75197851Y-59670972D01*
X75109847Y-59665864D01*
X74991745Y-59679636D01*
X74948215Y-59744599D01*
X74943107Y-59832604D01*
X74609628Y-59832604D01*
X74609628Y-59665864D01*
X73942670Y-59665864D01*
X73942670Y-59832604D01*
X73928898Y-59950705D01*
X73863934Y-59994235D01*
X73775930Y-59999343D01*
X73657828Y-60013115D01*
X73614299Y-60078078D01*
X73609190Y-60166083D01*
X73595418Y-60284185D01*
X73530455Y-60327714D01*
X73442451Y-60332823D01*
X73324349Y-60319051D01*
X73280819Y-60254087D01*
X73275711Y-60166083D01*
X73261939Y-60047981D01*
X73196976Y-60004451D01*
X73108972Y-59999343D01*
X72942232Y-59999343D01*
X72942232Y-59332385D01*
X72775492Y-59332385D01*
X72657391Y-59318613D01*
X72613861Y-59253650D01*
X72608753Y-59165645D01*
X72594981Y-59047544D01*
X72530018Y-59004014D01*
X72442013Y-58998906D01*
X72323912Y-59012678D01*
X72280382Y-59077641D01*
X72275274Y-59165645D01*
X72289046Y-59283747D01*
X72354009Y-59327277D01*
X72442013Y-59332385D01*
X72560115Y-59346157D01*
X72603645Y-59411120D01*
X72608753Y-59499125D01*
X72594981Y-59617226D01*
X72530018Y-59660756D01*
X72442013Y-59665864D01*
X72323912Y-59679636D01*
X72280382Y-59744599D01*
X72275274Y-59832604D01*
X71941794Y-59832604D01*
X71941794Y-58998906D01*
X72108534Y-58998906D01*
X72226636Y-58985134D01*
X72270165Y-58920171D01*
X72275274Y-58832166D01*
X72289046Y-58714064D01*
X72354009Y-58670535D01*
X72442013Y-58665426D01*
X72560115Y-58651654D01*
X72603645Y-58586691D01*
X72608753Y-58498687D01*
X72622525Y-58380585D01*
X72687488Y-58337055D01*
X72775492Y-58331947D01*
X72893594Y-58345719D01*
X72937124Y-58410682D01*
X72942232Y-58498687D01*
X72942232Y-58665426D01*
X73609190Y-58665426D01*
X73609190Y-58832166D01*
X73595418Y-58950268D01*
X73530455Y-58993798D01*
X73442451Y-58998906D01*
X73324349Y-59012678D01*
X73280819Y-59077641D01*
X73275711Y-59165645D01*
X73289483Y-59283747D01*
X73354446Y-59327277D01*
X73442451Y-59332385D01*
X73560552Y-59346157D01*
X73604082Y-59411120D01*
X73609190Y-59499125D01*
X73622962Y-59617226D01*
X73687926Y-59660756D01*
X73775930Y-59665864D01*
X73894032Y-59652092D01*
X73937562Y-59587129D01*
X73942670Y-59499125D01*
X73942670Y-59332385D01*
X75610066Y-59332385D01*
X75610066Y-59499125D01*
X75623838Y-59617226D01*
X75688801Y-59660756D01*
X75776805Y-59665864D01*
X75894907Y-59652092D01*
X75938437Y-59587129D01*
X75943545Y-59499125D01*
X75943545Y-59332385D01*
X76943983Y-59332385D01*
X76943983Y-59165645D01*
X76930211Y-59047544D01*
X76865247Y-59004014D01*
X76777243Y-58998906D01*
X76610503Y-58998906D01*
X76610503Y-58665426D01*
X76943983Y-58665426D01*
X77944420Y-58665426D01*
X77944420Y-58498687D01*
X77930648Y-58380585D01*
X77865685Y-58337055D01*
X77777681Y-58331947D01*
X77659579Y-58318175D01*
X77616049Y-58253212D01*
X77610941Y-58165208D01*
X77610941Y-57998468D01*
X78277899Y-57998468D01*
X78277899Y-59332385D01*
X78444639Y-59332385D01*
X78562741Y-59318613D01*
X78606270Y-59253650D01*
X78611379Y-59165645D01*
X78625151Y-59047544D01*
X78690114Y-59004014D01*
X78778118Y-58998906D01*
X78944858Y-58998906D01*
X78944858Y-58331947D01*
X79111597Y-58331947D01*
X79229699Y-58345719D01*
X79273229Y-58410682D01*
X79278337Y-58498687D01*
X79292109Y-58616788D01*
X79357072Y-58660318D01*
X79445077Y-58665426D01*
X79563178Y-58651654D01*
X79606708Y-58586691D01*
X79611816Y-58498687D01*
X79625588Y-58380585D01*
X79690551Y-58337055D01*
X79778556Y-58331947D01*
X79945295Y-58331947D01*
X79945295Y-58998906D01*
X80112035Y-58998906D01*
X80230137Y-59012678D01*
X80273667Y-59077641D01*
X80278775Y-59165645D01*
X80265003Y-59283747D01*
X80200040Y-59327277D01*
X80112035Y-59332385D01*
X79945295Y-59332385D01*
X79945295Y-59999343D01*
X80945733Y-59999343D01*
X80945733Y-59332385D01*
X81612692Y-59332385D01*
X81612692Y-59165645D01*
X81598920Y-59047544D01*
X81533956Y-59004014D01*
X81445952Y-58998906D01*
X81279212Y-58998906D01*
X81279212Y-58331947D01*
X80278775Y-58331947D01*
X80278775Y-58165208D01*
X80292547Y-58047106D01*
X80357510Y-58003576D01*
X80445514Y-57998468D01*
X80612254Y-57998468D01*
X80612254Y-57331510D01*
X80278775Y-57331510D01*
X80278775Y-57998468D01*
X79945295Y-57998468D01*
X79945295Y-57331510D01*
X79778556Y-57331510D01*
X79660454Y-57317738D01*
X79616924Y-57252774D01*
X79611816Y-57164770D01*
X79625588Y-57046668D01*
X79690551Y-57003139D01*
X79778556Y-56998030D01*
X79945295Y-56998030D01*
X79945295Y-56831291D01*
X80612254Y-56831291D01*
X80626026Y-56949392D01*
X80690989Y-56992922D01*
X80778993Y-56998030D01*
X80897095Y-56984258D01*
X80940625Y-56919295D01*
X80945733Y-56831291D01*
X80931961Y-56713189D01*
X80866998Y-56669659D01*
X80778993Y-56664551D01*
X80660892Y-56678323D01*
X80617362Y-56743286D01*
X80612254Y-56831291D01*
X79945295Y-56831291D01*
X79945295Y-56331072D01*
X80278775Y-56331072D01*
X80945733Y-56331072D01*
X80945733Y-56164332D01*
X80959505Y-56046231D01*
X81024468Y-56002701D01*
X81112473Y-55997593D01*
X81230574Y-55983821D01*
X81274104Y-55918858D01*
X81279212Y-55830853D01*
X81279212Y-55664114D01*
X80612254Y-55664114D01*
X80612254Y-55830853D01*
X80598482Y-55948955D01*
X80533519Y-55992485D01*
X80445514Y-55997593D01*
X80327413Y-56011365D01*
X80283883Y-56076328D01*
X80278775Y-56164332D01*
X80278775Y-56331072D01*
X79945295Y-56331072D01*
X79945295Y-55997593D01*
X79778556Y-55997593D01*
X79660454Y-56011365D01*
X79616924Y-56076328D01*
X79611816Y-56164332D01*
X79611816Y-56331072D01*
X78944858Y-56331072D01*
X78944858Y-56164332D01*
X78931086Y-56046231D01*
X78866123Y-56002701D01*
X78778118Y-55997593D01*
X78660017Y-56011365D01*
X78616487Y-56076328D01*
X78611379Y-56164332D01*
X78625151Y-56282434D01*
X78690114Y-56325964D01*
X78778118Y-56331072D01*
X78896220Y-56344844D01*
X78939750Y-56409807D01*
X78944858Y-56497812D01*
X78944858Y-56664551D01*
X78277899Y-56664551D01*
X78277899Y-56497812D01*
X78264127Y-56379710D01*
X78199164Y-56336180D01*
X78111160Y-56331072D01*
X77993058Y-56317300D01*
X77949528Y-56252337D01*
X77944420Y-56164332D01*
X77930648Y-56046231D01*
X77865685Y-56002701D01*
X77777681Y-55997593D01*
X77659579Y-56011365D01*
X77616049Y-56076328D01*
X77610941Y-56164332D01*
X77597169Y-56282434D01*
X77532206Y-56325964D01*
X77444201Y-56331072D01*
X77326100Y-56344844D01*
X77282570Y-56409807D01*
X77277462Y-56497812D01*
X77291234Y-56615913D01*
X77356197Y-56659443D01*
X77444201Y-56664551D01*
X77562303Y-56678323D01*
X77605833Y-56743286D01*
X77610941Y-56831291D01*
X77610941Y-56998030D01*
X76943983Y-56998030D01*
X76943983Y-57998468D01*
X77110722Y-57998468D01*
X77228824Y-58012240D01*
X77272354Y-58077203D01*
X77277462Y-58165208D01*
X77263690Y-58283309D01*
X77198727Y-58326839D01*
X77110722Y-58331947D01*
X76992621Y-58345719D01*
X76949091Y-58410682D01*
X76943983Y-58498687D01*
X76943983Y-58665426D01*
X76610503Y-58665426D01*
X76610503Y-58331947D01*
X76443764Y-58331947D01*
X76325662Y-58318175D01*
X76282132Y-58253212D01*
X76277024Y-58165208D01*
X76277024Y-57998468D01*
X75276586Y-57998468D01*
X75276586Y-58331947D01*
X75943545Y-58331947D01*
X75943545Y-58498687D01*
X75957317Y-58616788D01*
X76022280Y-58660318D01*
X76110285Y-58665426D01*
X76228386Y-58679198D01*
X76271916Y-58744162D01*
X76277024Y-58832166D01*
X76263252Y-58950268D01*
X76198289Y-58993798D01*
X76110285Y-58998906D01*
X75992183Y-58985134D01*
X75948653Y-58920171D01*
X75943545Y-58832166D01*
X75929773Y-58714064D01*
X75864810Y-58670535D01*
X75776805Y-58665426D01*
X75658704Y-58679198D01*
X75615174Y-58744162D01*
X75610066Y-58832166D01*
X75610066Y-58998906D01*
X74943107Y-58998906D01*
X74943107Y-58832166D01*
X74929335Y-58714064D01*
X74864372Y-58670535D01*
X74776368Y-58665426D01*
X74658266Y-58679198D01*
X74614736Y-58744162D01*
X74609628Y-58832166D01*
X74609628Y-58998906D01*
X73942670Y-58998906D01*
X73942670Y-58665426D01*
X74609628Y-58665426D01*
X74609628Y-58331947D01*
X73275711Y-58331947D01*
X73275711Y-58165208D01*
X74609628Y-58165208D01*
X74623400Y-58283309D01*
X74688363Y-58326839D01*
X74776368Y-58331947D01*
X74894469Y-58345719D01*
X74937999Y-58410682D01*
X74943107Y-58498687D01*
X74956879Y-58616788D01*
X75021842Y-58660318D01*
X75109847Y-58665426D01*
X75227948Y-58651654D01*
X75271478Y-58586691D01*
X75276586Y-58498687D01*
X75262814Y-58380585D01*
X75197851Y-58337055D01*
X75109847Y-58331947D01*
X74991745Y-58318175D01*
X74948215Y-58253212D01*
X74943107Y-58165208D01*
X74929335Y-58047106D01*
X74864372Y-58003576D01*
X74776368Y-57998468D01*
X74658266Y-58012240D01*
X74614736Y-58077203D01*
X74609628Y-58165208D01*
X73275711Y-58165208D01*
X73275711Y-57998468D01*
X74609628Y-57998468D01*
X74609628Y-57498249D01*
X74943107Y-57498249D01*
X74956879Y-57616351D01*
X75021842Y-57659881D01*
X75109847Y-57664989D01*
X75227948Y-57651217D01*
X75271478Y-57586254D01*
X75276586Y-57498249D01*
X75610066Y-57498249D01*
X75623838Y-57616351D01*
X75688801Y-57659881D01*
X75776805Y-57664989D01*
X75894907Y-57651217D01*
X75938437Y-57586254D01*
X75943545Y-57498249D01*
X76277024Y-57498249D01*
X76290796Y-57616351D01*
X76355759Y-57659881D01*
X76443764Y-57664989D01*
X76561865Y-57651217D01*
X76605395Y-57586254D01*
X76610503Y-57498249D01*
X76596731Y-57380148D01*
X76531768Y-57336618D01*
X76443764Y-57331510D01*
X76325662Y-57345282D01*
X76282132Y-57410245D01*
X76277024Y-57498249D01*
X75943545Y-57498249D01*
X75929773Y-57380148D01*
X75864810Y-57336618D01*
X75776805Y-57331510D01*
X75658704Y-57345282D01*
X75615174Y-57410245D01*
X75610066Y-57498249D01*
X75276586Y-57498249D01*
X75262814Y-57380148D01*
X75197851Y-57336618D01*
X75109847Y-57331510D01*
X74991745Y-57345282D01*
X74948215Y-57410245D01*
X74943107Y-57498249D01*
X74609628Y-57498249D01*
X74609628Y-56998030D01*
X74943107Y-56998030D01*
X75610066Y-56998030D01*
X76610503Y-56998030D01*
X76610503Y-56831291D01*
X76624275Y-56713189D01*
X76689238Y-56669659D01*
X76777243Y-56664551D01*
X76943983Y-56664551D01*
X76943983Y-55997593D01*
X76277024Y-55997593D01*
X76277024Y-56164332D01*
X76290796Y-56282434D01*
X76355759Y-56325964D01*
X76443764Y-56331072D01*
X76561865Y-56344844D01*
X76605395Y-56409807D01*
X76610503Y-56497812D01*
X76610503Y-56664551D01*
X75610066Y-56664551D01*
X75610066Y-56998030D01*
X74943107Y-56998030D01*
X74943107Y-55997593D01*
X74776368Y-55997593D01*
X74658266Y-55983821D01*
X74614736Y-55918858D01*
X74609628Y-55830853D01*
X74623400Y-55712752D01*
X74688363Y-55669222D01*
X74776368Y-55664114D01*
X74894469Y-55677886D01*
X74937999Y-55742849D01*
X74943107Y-55830853D01*
X74956879Y-55948955D01*
X75021842Y-55992485D01*
X75109847Y-55997593D01*
X75276586Y-55997593D01*
X75276586Y-56664551D01*
X75443326Y-56664551D01*
X75561428Y-56650779D01*
X75604958Y-56585816D01*
X75610066Y-56497812D01*
X75623838Y-56379710D01*
X75688801Y-56336180D01*
X75776805Y-56331072D01*
X75894907Y-56317300D01*
X75938437Y-56252337D01*
X75943545Y-56164332D01*
X75957317Y-56046231D01*
X76022280Y-56002701D01*
X76110285Y-55997593D01*
X76228386Y-55983821D01*
X76271916Y-55918858D01*
X76277024Y-55830853D01*
X76263252Y-55712752D01*
X76198289Y-55669222D01*
X76110285Y-55664114D01*
X75992183Y-55650342D01*
X75948653Y-55585378D01*
X75943545Y-55497374D01*
X75943545Y-55330634D01*
X76610503Y-55330634D01*
X76610503Y-55497374D01*
X76624275Y-55615476D01*
X76689238Y-55659005D01*
X76777243Y-55664114D01*
X76895345Y-55677886D01*
X76938874Y-55742849D01*
X76943983Y-55830853D01*
X76943983Y-55997593D01*
X77610941Y-55997593D01*
X77610941Y-55830853D01*
X77597169Y-55712752D01*
X77532206Y-55669222D01*
X77444201Y-55664114D01*
X77326100Y-55650342D01*
X77282570Y-55585378D01*
X77277462Y-55497374D01*
X77277462Y-55330634D01*
X77944420Y-55330634D01*
X77944420Y-55997593D01*
X78111160Y-55997593D01*
X78229261Y-55983821D01*
X78272791Y-55918858D01*
X78277899Y-55830853D01*
X78291671Y-55712752D01*
X78356635Y-55669222D01*
X78444639Y-55664114D01*
X78562741Y-55650342D01*
X78606270Y-55585378D01*
X78611379Y-55497374D01*
X78625151Y-55379272D01*
X78690114Y-55335742D01*
X78778118Y-55330634D01*
X78896220Y-55344406D01*
X78939750Y-55409370D01*
X78944858Y-55497374D01*
X78944858Y-55664114D01*
X79945295Y-55664114D01*
X79945295Y-55330634D01*
X81279212Y-55330634D01*
X81279212Y-55497374D01*
X81292984Y-55615476D01*
X81357947Y-55659005D01*
X81445952Y-55664114D01*
X81612692Y-55664114D01*
X81612692Y-56664551D01*
X81445952Y-56664551D01*
X81327850Y-56678323D01*
X81284320Y-56743286D01*
X81279212Y-56831291D01*
X81292984Y-56949392D01*
X81357947Y-56992922D01*
X81445952Y-56998030D01*
X81612692Y-56998030D01*
X81612692Y-57664989D01*
X81279212Y-57664989D01*
X81279212Y-56998030D01*
X80945733Y-56998030D01*
X80945733Y-57998468D01*
X81112473Y-57998468D01*
X81230574Y-58012240D01*
X81274104Y-58077203D01*
X81279212Y-58165208D01*
X81292984Y-58283309D01*
X81357947Y-58326839D01*
X81445952Y-58331947D01*
X81564054Y-58345719D01*
X81607583Y-58410682D01*
X81612692Y-58498687D01*
X81626463Y-58616788D01*
X81691427Y-58660318D01*
X81779431Y-58665426D01*
X81946171Y-58665426D01*
X81946171Y-57998468D01*
X82613129Y-57998468D01*
X82613129Y-58165208D01*
X82626901Y-58283309D01*
X82691864Y-58326839D01*
X82779869Y-58331947D01*
X82897970Y-58345719D01*
X82941500Y-58410682D01*
X82946608Y-58498687D01*
X82960380Y-58616788D01*
X83025344Y-58660318D01*
X83113348Y-58665426D01*
X83231450Y-58679198D01*
X83274979Y-58744162D01*
X83280088Y-58832166D01*
X83293860Y-58950268D01*
X83358823Y-58993798D01*
X83446827Y-58998906D01*
X83564929Y-58985134D01*
X83608459Y-58920171D01*
X83613567Y-58832166D01*
X83627339Y-58714064D01*
X83692302Y-58670535D01*
X83780306Y-58665426D01*
X83947046Y-58665426D01*
X83947046Y-59332385D01*
X84113786Y-59332385D01*
X84231887Y-59346157D01*
X84275417Y-59411120D01*
X84280525Y-59499125D01*
X84266753Y-59617226D01*
X84201790Y-59660756D01*
X84113786Y-59665864D01*
X83995684Y-59679636D01*
X83952154Y-59744599D01*
X83947046Y-59832604D01*
X83933274Y-59950705D01*
X83868311Y-59994235D01*
X83780306Y-59999343D01*
X83613567Y-59999343D01*
X83613567Y-60666302D01*
X83780306Y-60666302D01*
X83898408Y-60652530D01*
X83941938Y-60587567D01*
X83947046Y-60499562D01*
X83960818Y-60381461D01*
X84025781Y-60337931D01*
X84113786Y-60332823D01*
X84231887Y-60346595D01*
X84275417Y-60411558D01*
X84280525Y-60499562D01*
X84266753Y-60617664D01*
X84201790Y-60661194D01*
X84113786Y-60666302D01*
X83995684Y-60680074D01*
X83952154Y-60745037D01*
X83947046Y-60833041D01*
X83947046Y-60999781D01*
X83280088Y-60999781D01*
X83280088Y-61166521D01*
X83293860Y-61284622D01*
X83358823Y-61328152D01*
X83446827Y-61333260D01*
X83613567Y-61333260D01*
X83613567Y-62000219D01*
X84280525Y-62000219D01*
X84280525Y-62166958D01*
X84266753Y-62285060D01*
X84201790Y-62328590D01*
X84113786Y-62333698D01*
X83947046Y-62333698D01*
X83947046Y-63000656D01*
X84113786Y-63000656D01*
X84231887Y-63014428D01*
X84275417Y-63079391D01*
X84280525Y-63167396D01*
X84266753Y-63285497D01*
X84201790Y-63329027D01*
X84113786Y-63334135D01*
X83947046Y-63334135D01*
X83947046Y-64001094D01*
X83613567Y-64001094D01*
X83613567Y-64668052D01*
X84280525Y-64668052D01*
X84280525Y-65001532D01*
X83280088Y-65001532D01*
X83280088Y-65168271D01*
X83293860Y-65286373D01*
X83358823Y-65329903D01*
X83446827Y-65335011D01*
X83564929Y-65348783D01*
X83608459Y-65413746D01*
X83613567Y-65501750D01*
X83613567Y-65668490D01*
X84280525Y-65668490D01*
X84280525Y-66335448D01*
X84113786Y-66335448D01*
X83995684Y-66321676D01*
X83952154Y-66256713D01*
X83947046Y-66168709D01*
X83933274Y-66050607D01*
X83868311Y-66007077D01*
X83780306Y-66001969D01*
X83613567Y-66001969D01*
X83613567Y-66668928D01*
X82946608Y-66668928D01*
X82946608Y-66335448D01*
X82279650Y-66335448D01*
X82279650Y-66502188D01*
X82293422Y-66620290D01*
X82358385Y-66663819D01*
X82446390Y-66668928D01*
X82564491Y-66682700D01*
X82608021Y-66747663D01*
X82613129Y-66835667D01*
X82613129Y-67002407D01*
X81946171Y-67002407D01*
X81946171Y-66335448D01*
X81279212Y-66335448D01*
X81279212Y-66001969D01*
X81612692Y-66001969D01*
X82613129Y-66001969D01*
X82613129Y-65835230D01*
X82946608Y-65835230D01*
X82960380Y-65953331D01*
X83025344Y-65996861D01*
X83113348Y-66001969D01*
X83231450Y-65988197D01*
X83274979Y-65923234D01*
X83280088Y-65835230D01*
X83266316Y-65717128D01*
X83201352Y-65673598D01*
X83113348Y-65668490D01*
X82995246Y-65682262D01*
X82951716Y-65747225D01*
X82946608Y-65835230D01*
X82613129Y-65835230D01*
X82613129Y-65001532D01*
X81612692Y-65001532D01*
X81612692Y-66001969D01*
X81279212Y-66001969D01*
X81279212Y-64668052D01*
X80945733Y-64668052D01*
G37*
G36*
X77895782Y-56344844D02*
G01*
X77939312Y-56409807D01*
X77944420Y-56497812D01*
X77930648Y-56615913D01*
X77865685Y-56659443D01*
X77777681Y-56664551D01*
X77659579Y-56650779D01*
X77616049Y-56585816D01*
X77610941Y-56497812D01*
X77624713Y-56379710D01*
X77689676Y-56336180D01*
X77777681Y-56331072D01*
X77895782Y-56344844D01*
G37*
G36*
X74276149Y-60999781D02*
G01*
X73609190Y-60999781D01*
X73609190Y-60666302D01*
X74276149Y-60666302D01*
X74276149Y-60999781D01*
G37*
%TO.C,R23*%
X125230000Y-57870000D02*
X131770000Y-57870000D01*
X131770000Y-57870000D02*
X131770000Y-57540000D01*
X125230000Y-55130000D02*
X131770000Y-55130000D01*
X125230000Y-57540000D02*
X125230000Y-57870000D01*
X125230000Y-55460000D02*
X125230000Y-55130000D01*
X131770000Y-55130000D02*
X131770000Y-55460000D01*
%TO.C,R8*%
X97730000Y-103870000D02*
X104270000Y-103870000D01*
X104270000Y-101130000D02*
X104270000Y-101460000D01*
X104270000Y-103870000D02*
X104270000Y-103540000D01*
X97730000Y-101130000D02*
X104270000Y-101130000D01*
X97730000Y-103540000D02*
X97730000Y-103870000D01*
X97730000Y-101460000D02*
X97730000Y-101130000D01*
%TO.C,R15*%
X117980000Y-72630000D02*
X124520000Y-72630000D01*
X124520000Y-75370000D02*
X124520000Y-75040000D01*
X117980000Y-75370000D02*
X124520000Y-75370000D01*
X117980000Y-75040000D02*
X117980000Y-75370000D01*
X124520000Y-72630000D02*
X124520000Y-72960000D01*
X117980000Y-72960000D02*
X117980000Y-72630000D01*
%TO.C,J1*%
X77000000Y-113400000D02*
X77000000Y-113399000D01*
X81150000Y-125050000D02*
X81150000Y-123050000D01*
X78910000Y-125050000D02*
X81150000Y-125050000D01*
X77351000Y-120960000D02*
X77351000Y-120133000D01*
X73250000Y-116900000D02*
X73250000Y-114100000D01*
X77351000Y-124810000D02*
X77351000Y-124040000D01*
X76939000Y-107100000D02*
X77000000Y-107100000D01*
X77000000Y-114100000D02*
X77000000Y-114100000D01*
X73250000Y-110600000D02*
X75561000Y-110600000D01*
X73250000Y-116900000D02*
X75561000Y-116900000D01*
X73250000Y-120400000D02*
X73250000Y-117600000D01*
X77000000Y-107100000D02*
X77000000Y-107100000D01*
X73250000Y-120400000D02*
X75561000Y-120400000D01*
X73250000Y-123900000D02*
X74710000Y-123900000D01*
X77000000Y-109900000D02*
X77000000Y-109899000D01*
X77351000Y-110866000D02*
X77351000Y-109633000D01*
X76939000Y-114100000D02*
X77000000Y-114100000D01*
X76939000Y-116900000D02*
X77000000Y-116900000D01*
X76939000Y-120400000D02*
X77000000Y-120400000D01*
X77351000Y-117866000D02*
X77351000Y-116633000D01*
X73250000Y-123900000D02*
X73250000Y-121100000D01*
X73250000Y-109900000D02*
X75561000Y-109900000D01*
X77351000Y-114366000D02*
X77351000Y-113133000D01*
X77000000Y-110600000D02*
X77000000Y-110600000D01*
X72490000Y-124810000D02*
X80910000Y-124810000D01*
X77000000Y-116900000D02*
X77000000Y-116899000D01*
X76939000Y-113400000D02*
X77000000Y-113400000D01*
X77351000Y-107366000D02*
X77351000Y-106189000D01*
X73250000Y-107100000D02*
X75561000Y-107100000D01*
X73250000Y-117600000D02*
X75561000Y-117600000D01*
X77000000Y-117600000D02*
X77000000Y-117600000D01*
X80910000Y-124810000D02*
X80910000Y-106189000D01*
X73250000Y-109900000D02*
X73250000Y-107100000D01*
X73250000Y-121100000D02*
X74710000Y-121100000D01*
X73250000Y-113400000D02*
X75561000Y-113400000D01*
X76939000Y-110600000D02*
X77000000Y-110600000D01*
X73250000Y-113400000D02*
X73250000Y-110600000D01*
X73250000Y-114100000D02*
X75561000Y-114100000D01*
X76939000Y-109900000D02*
X77000000Y-109900000D01*
X77000000Y-120400000D02*
X77000000Y-120399000D01*
X72490000Y-106189000D02*
X80910000Y-106189000D01*
X76939000Y-117600000D02*
X77000000Y-117600000D01*
X72490000Y-124810000D02*
X72490000Y-106189000D01*
X74719000Y-121502000D02*
G75*
G03*
X74720566Y-123497890I-69000J-998000D01*
G01*
X74992000Y-118060000D02*
G75*
G03*
X74992233Y-119939915I-342000J-940000D01*
G01*
X74992000Y-114560000D02*
G75*
G03*
X74992233Y-116439915I-342000J-940000D01*
G01*
X74992000Y-111060000D02*
G75*
G03*
X74992233Y-112939915I-342000J-940000D01*
G01*
X74992000Y-107560000D02*
G75*
G03*
X74992233Y-109439915I-342000J-940000D01*
G01*
%TO.C,Q9*%
X111050000Y-91350000D02*
X113450000Y-91350000D01*
X113450000Y-91350000D02*
X113450000Y-92400000D01*
X113450000Y-94650000D02*
X113450000Y-93600000D01*
X111650000Y-94650000D02*
X113450000Y-94650000D01*
%TO.C,Q6*%
X99600000Y-87650000D02*
X99600000Y-89450000D01*
X102900000Y-87050000D02*
X102900000Y-89450000D01*
X99600000Y-89450000D02*
X100650000Y-89450000D01*
X102900000Y-89450000D02*
X101850000Y-89450000D01*
%TO.C,J3*%
X77646000Y-70366000D02*
X77646000Y-69190000D01*
X77646000Y-84310000D02*
X77646000Y-83540000D01*
X81205000Y-84310000D02*
X81205000Y-69190000D01*
X77646000Y-80460000D02*
X77646000Y-79633000D01*
X72785000Y-69190000D02*
X81205000Y-69190000D01*
X73545000Y-79900000D02*
X75856000Y-79900000D01*
X73545000Y-77100000D02*
X75856000Y-77100000D01*
X72785000Y-84310000D02*
X81205000Y-84310000D01*
X73545000Y-83400000D02*
X73545000Y-80600000D01*
X73545000Y-72900000D02*
X73545000Y-70100000D01*
X77234000Y-72900000D02*
X77295000Y-72900000D01*
X77646000Y-77366000D02*
X77646000Y-76133000D01*
X77234000Y-77100000D02*
X77295000Y-77100000D01*
X77295000Y-77100000D02*
X77295000Y-77100000D01*
X77234000Y-79900000D02*
X77295000Y-79900000D01*
X79205000Y-84550000D02*
X81445000Y-84550000D01*
X77295000Y-79900000D02*
X77295000Y-79899000D01*
X77295000Y-76400000D02*
X77295000Y-76399000D01*
X77295000Y-72900000D02*
X77295000Y-72899000D01*
X73545000Y-80600000D02*
X75005000Y-80600000D01*
X77234000Y-73600000D02*
X77295000Y-73600000D01*
X73545000Y-76400000D02*
X73545000Y-73600000D01*
X77646000Y-73866000D02*
X77646000Y-72633000D01*
X73545000Y-70100000D02*
X75856000Y-70100000D01*
X77234000Y-70100000D02*
X77295000Y-70100000D01*
X73545000Y-83400000D02*
X75005000Y-83400000D01*
X73545000Y-79900000D02*
X73545000Y-77100000D01*
X81445000Y-84550000D02*
X81445000Y-82550000D01*
X77295000Y-73600000D02*
X77295000Y-73600000D01*
X73545000Y-73600000D02*
X75856000Y-73600000D01*
X73545000Y-76400000D02*
X75856000Y-76400000D01*
X72785000Y-84310000D02*
X72785000Y-69190000D01*
X77295000Y-70100000D02*
X77295000Y-70100000D01*
X73545000Y-72900000D02*
X75856000Y-72900000D01*
X77234000Y-76400000D02*
X77295000Y-76400000D01*
X75014000Y-81002000D02*
G75*
G03*
X75015566Y-82997890I-69000J-998000D01*
G01*
X75287000Y-77560000D02*
G75*
G03*
X75287233Y-79439915I-342000J-940000D01*
G01*
X75287000Y-74060000D02*
G75*
G03*
X75287233Y-75939915I-342000J-940000D01*
G01*
X75287000Y-70560000D02*
G75*
G03*
X75287233Y-72439915I-342000J-940000D01*
G01*
%TO.C,R14*%
X124520000Y-79380000D02*
X117980000Y-79380000D01*
X124520000Y-81790000D02*
X124520000Y-82120000D01*
X117980000Y-82120000D02*
X117980000Y-81790000D01*
X117980000Y-79380000D02*
X117980000Y-79710000D01*
X124520000Y-82120000D02*
X117980000Y-82120000D01*
X124520000Y-79710000D02*
X124520000Y-79380000D01*
%TO.C,R9*%
X97980000Y-108130000D02*
X104520000Y-108130000D01*
X97980000Y-108460000D02*
X97980000Y-108130000D01*
X104520000Y-108130000D02*
X104520000Y-108460000D01*
X97980000Y-110540000D02*
X97980000Y-110870000D01*
X97980000Y-110870000D02*
X104520000Y-110870000D01*
X104520000Y-110870000D02*
X104520000Y-110540000D01*
%TO.C,R5*%
X87290000Y-77130000D02*
X93830000Y-77130000D01*
X93830000Y-77130000D02*
X93830000Y-77460000D01*
X87290000Y-79870000D02*
X93830000Y-79870000D01*
X87290000Y-77460000D02*
X87290000Y-77130000D01*
X93830000Y-79870000D02*
X93830000Y-79540000D01*
X87290000Y-79540000D02*
X87290000Y-79870000D01*
%TO.C,R4*%
X87480000Y-73120000D02*
X94020000Y-73120000D01*
X94020000Y-70380000D02*
X94020000Y-70710000D01*
X87480000Y-70380000D02*
X94020000Y-70380000D01*
X87480000Y-70710000D02*
X87480000Y-70380000D01*
X94020000Y-73120000D02*
X94020000Y-72790000D01*
X87480000Y-72790000D02*
X87480000Y-73120000D01*
%TO.C,R18*%
X124770000Y-99460000D02*
X124770000Y-99130000D01*
X118230000Y-101870000D02*
X118230000Y-101540000D01*
X118230000Y-99130000D02*
X118230000Y-99460000D01*
X124770000Y-101540000D02*
X124770000Y-101870000D01*
X124770000Y-101870000D02*
X118230000Y-101870000D01*
X124770000Y-99130000D02*
X118230000Y-99130000D01*
%TO.C,F1*%
X89090000Y-131380000D02*
X89090000Y-135620000D01*
X97830000Y-135620000D02*
X97830000Y-131380000D01*
X89090000Y-131380000D02*
X97830000Y-131380000D01*
X97830000Y-135620000D02*
X89090000Y-135620000D01*
%TO.C,R13*%
X117980000Y-88540000D02*
X117980000Y-88870000D01*
X117980000Y-86460000D02*
X117980000Y-86130000D01*
X117980000Y-86130000D02*
X124520000Y-86130000D01*
X117980000Y-88870000D02*
X124520000Y-88870000D01*
X124520000Y-88870000D02*
X124520000Y-88540000D01*
X124520000Y-86130000D02*
X124520000Y-86460000D01*
%TO.C,J5*%
X134495000Y-70395000D02*
X134495000Y-67795000D01*
X137095000Y-67795000D02*
X137095000Y-118715000D01*
X131895000Y-67795000D02*
X133225000Y-67795000D01*
X131895000Y-70395000D02*
X134495000Y-70395000D01*
X131895000Y-69125000D02*
X131895000Y-67795000D01*
X131895000Y-70395000D02*
X131895000Y-118715000D01*
X131895000Y-118715000D02*
X137095000Y-118715000D01*
X134495000Y-67795000D02*
X137095000Y-67795000D01*
%TO.C,Q1*%
X101600000Y-51900000D02*
X101600000Y-53700000D01*
X104900000Y-51300000D02*
X104900000Y-53700000D01*
X101600000Y-53700000D02*
X102650000Y-53700000D01*
X104900000Y-53700000D02*
X103850000Y-53700000D01*
%TO.C,R6*%
X93830000Y-86620000D02*
X93830000Y-86290000D01*
X87290000Y-86620000D02*
X93830000Y-86620000D01*
X87290000Y-83880000D02*
X93830000Y-83880000D01*
X87290000Y-86290000D02*
X87290000Y-86620000D01*
X93830000Y-83880000D02*
X93830000Y-84210000D01*
X87290000Y-84210000D02*
X87290000Y-83880000D01*
%TO.C,R24*%
X118230000Y-117380000D02*
X118230000Y-117710000D01*
X124770000Y-120120000D02*
X118230000Y-120120000D01*
X118230000Y-120120000D02*
X118230000Y-119790000D01*
X124770000Y-119790000D02*
X124770000Y-120120000D01*
X124770000Y-117710000D02*
X124770000Y-117380000D01*
X124770000Y-117380000D02*
X118230000Y-117380000D01*
%TO.C,R10*%
X98290000Y-114460000D02*
X98290000Y-114130000D01*
X98290000Y-114130000D02*
X104830000Y-114130000D01*
X98290000Y-116870000D02*
X104830000Y-116870000D01*
X104830000Y-114130000D02*
X104830000Y-114460000D01*
X98290000Y-116540000D02*
X98290000Y-116870000D01*
X104830000Y-116870000D02*
X104830000Y-116540000D01*
%TO.C,R3*%
X87480000Y-63630000D02*
X94020000Y-63630000D01*
X87480000Y-66370000D02*
X94020000Y-66370000D01*
X94020000Y-63630000D02*
X94020000Y-63960000D01*
X87480000Y-63960000D02*
X87480000Y-63630000D01*
X87480000Y-66040000D02*
X87480000Y-66370000D01*
X94020000Y-66370000D02*
X94020000Y-66040000D01*
%TO.C,R7*%
X103770000Y-96620000D02*
X103770000Y-96290000D01*
X97230000Y-93880000D02*
X103770000Y-93880000D01*
X103770000Y-93880000D02*
X103770000Y-94210000D01*
X97230000Y-96620000D02*
X103770000Y-96620000D01*
X97230000Y-96290000D02*
X97230000Y-96620000D01*
X97230000Y-94210000D02*
X97230000Y-93880000D01*
%TO.C,R2*%
X93770000Y-57380000D02*
X93770000Y-57710000D01*
X87230000Y-60120000D02*
X93770000Y-60120000D01*
X87230000Y-57380000D02*
X93770000Y-57380000D01*
X93770000Y-60120000D02*
X93770000Y-59790000D01*
X87230000Y-57710000D02*
X87230000Y-57380000D01*
X87230000Y-59790000D02*
X87230000Y-60120000D01*
%TO.C,R1*%
X87290000Y-51460000D02*
X87290000Y-51130000D01*
X87290000Y-53870000D02*
X93830000Y-53870000D01*
X93830000Y-53870000D02*
X93830000Y-53540000D01*
X87290000Y-51130000D02*
X93830000Y-51130000D01*
X93830000Y-51130000D02*
X93830000Y-51460000D01*
X87290000Y-53540000D02*
X87290000Y-53870000D01*
%TO.C,Q10*%
X111650000Y-101900000D02*
X113450000Y-101900000D01*
X113450000Y-98600000D02*
X113450000Y-99650000D01*
X111050000Y-98600000D02*
X113450000Y-98600000D01*
X113450000Y-101900000D02*
X113450000Y-100850000D01*
%TO.C,R17*%
X124020000Y-66380000D02*
X124020000Y-66710000D01*
X117480000Y-68790000D02*
X117480000Y-69120000D01*
X117480000Y-66380000D02*
X124020000Y-66380000D01*
X117480000Y-66710000D02*
X117480000Y-66380000D01*
X117480000Y-69120000D02*
X124020000Y-69120000D01*
X124020000Y-69120000D02*
X124020000Y-68790000D01*
%TO.C,R22*%
X116330000Y-58120000D02*
X116330000Y-57790000D01*
X109790000Y-58120000D02*
X116330000Y-58120000D01*
X109790000Y-55380000D02*
X116330000Y-55380000D01*
X109790000Y-57790000D02*
X109790000Y-58120000D01*
X116330000Y-55380000D02*
X116330000Y-55710000D01*
X109790000Y-55710000D02*
X109790000Y-55380000D01*
%TD*%
M02*
