%TF.GenerationSoftware,KiCad,Pcbnew,(6.0.2-0)*%
%TF.CreationDate,2022-04-11T12:52:23+09:00*%
%TF.ProjectId,reTProject,72655450-726f-46a6-9563-742e6b696361,rev?*%
%TF.SameCoordinates,Original*%
%TF.FileFunction,Soldermask,Bot*%
%TF.FilePolarity,Negative*%
%FSLAX46Y46*%
G04 Gerber Fmt 4.6, Leading zero omitted, Abs format (unit mm)*
G04 Created by KiCad (PCBNEW (6.0.2-0)) date 2022-04-11 12:52:23*
%MOMM*%
%LPD*%
G01*
G04 APERTURE LIST*
G04 Aperture macros list*
%AMRoundRect*
0 Rectangle with rounded corners*
0 $1 Rounding radius*
0 $2 $3 $4 $5 $6 $7 $8 $9 X,Y pos of 4 corners*
0 Add a 4 corners polygon primitive as box body*
4,1,4,$2,$3,$4,$5,$6,$7,$8,$9,$2,$3,0*
0 Add four circle primitives for the rounded corners*
1,1,$1+$1,$2,$3*
1,1,$1+$1,$4,$5*
1,1,$1+$1,$6,$7*
1,1,$1+$1,$8,$9*
0 Add four rect primitives between the rounded corners*
20,1,$1+$1,$2,$3,$4,$5,0*
20,1,$1+$1,$4,$5,$6,$7,0*
20,1,$1+$1,$6,$7,$8,$9,0*
20,1,$1+$1,$8,$9,$2,$3,0*%
G04 Aperture macros list end*
%ADD10C,1.800000*%
%ADD11O,1.800000X1.800000*%
%ADD12RoundRect,0.100000X1.300000X-1.300000X1.300000X1.300000X-1.300000X1.300000X-1.300000X-1.300000X0*%
%ADD13C,2.800000*%
%ADD14RoundRect,0.100000X1.750000X-1.750000X1.750000X1.750000X-1.750000X1.750000X-1.750000X-1.750000X0*%
%ADD15RoundRect,0.850000X1.000000X-0.750000X1.000000X0.750000X-1.000000X0.750000X-1.000000X-0.750000X0*%
%ADD16RoundRect,0.975000X0.875000X-0.875000X0.875000X0.875000X-0.875000X0.875000X-0.875000X-0.875000X0*%
%ADD17C,2.200000*%
%ADD18RoundRect,0.100000X-0.850000X-0.850000X0.850000X-0.850000X0.850000X0.850000X-0.850000X0.850000X0*%
%ADD19O,1.900000X1.900000*%
G04 APERTURE END LIST*
D10*
%TO.C,R20*%
X117440000Y-61500000D03*
D11*
X125060000Y-61500000D03*
%TD*%
D10*
%TO.C,R16*%
X125310000Y-94000000D03*
D11*
X117690000Y-94000000D03*
%TD*%
D12*
%TO.C,J2*%
X76500000Y-100750000D03*
D13*
X76500000Y-97250000D03*
X76500000Y-93750000D03*
X76500000Y-90250000D03*
%TD*%
D10*
%TO.C,R19*%
X125310000Y-106000000D03*
D11*
X117690000Y-106000000D03*
%TD*%
D10*
%TO.C,R21*%
X125560000Y-112500000D03*
D11*
X117940000Y-112500000D03*
%TD*%
D10*
%TO.C,R12*%
X89440000Y-126250000D03*
D11*
X97060000Y-126250000D03*
%TD*%
D10*
%TO.C,R11*%
X89500000Y-120000000D03*
D11*
X97120000Y-120000000D03*
%TD*%
D14*
%TO.C,J4*%
X111250000Y-122750000D03*
D15*
X111250000Y-128750000D03*
D16*
X115950000Y-125750000D03*
%TD*%
D10*
%TO.C,R23*%
X124690000Y-56500000D03*
D11*
X132310000Y-56500000D03*
%TD*%
D10*
%TO.C,R8*%
X97190000Y-102500000D03*
D11*
X104810000Y-102500000D03*
%TD*%
D10*
%TO.C,R15*%
X117440000Y-74000000D03*
D11*
X125060000Y-74000000D03*
%TD*%
D12*
%TO.C,J1*%
X76250000Y-122500000D03*
D13*
X76250000Y-119000000D03*
X76250000Y-115500000D03*
X76250000Y-112000000D03*
X76250000Y-108500000D03*
%TD*%
D12*
%TO.C,J3*%
X76545000Y-82000000D03*
D13*
X76545000Y-78500000D03*
X76545000Y-75000000D03*
X76545000Y-71500000D03*
%TD*%
D10*
%TO.C,R14*%
X125060000Y-80750000D03*
D11*
X117440000Y-80750000D03*
%TD*%
D10*
%TO.C,R9*%
X97440000Y-109500000D03*
D11*
X105060000Y-109500000D03*
%TD*%
D10*
%TO.C,R5*%
X86750000Y-78500000D03*
D11*
X94370000Y-78500000D03*
%TD*%
D10*
%TO.C,R4*%
X86940000Y-71750000D03*
D11*
X94560000Y-71750000D03*
%TD*%
D10*
%TO.C,R18*%
X125310000Y-100500000D03*
D11*
X117690000Y-100500000D03*
%TD*%
D17*
%TO.C,F1*%
X96000000Y-133500000D03*
X90920000Y-133490000D03*
%TD*%
D10*
%TO.C,R13*%
X117440000Y-87500000D03*
D11*
X125060000Y-87500000D03*
%TD*%
D18*
%TO.C,J5*%
X133225000Y-69125000D03*
D19*
X135765000Y-69125000D03*
X133225000Y-71665000D03*
X135765000Y-71665000D03*
X133225000Y-74205000D03*
X135765000Y-74205000D03*
X133225000Y-76745000D03*
X135765000Y-76745000D03*
X133225000Y-79285000D03*
X135765000Y-79285000D03*
X133225000Y-81825000D03*
X135765000Y-81825000D03*
X133225000Y-84365000D03*
X135765000Y-84365000D03*
X133225000Y-86905000D03*
X135765000Y-86905000D03*
X133225000Y-89445000D03*
X135765000Y-89445000D03*
X133225000Y-91985000D03*
X135765000Y-91985000D03*
X133225000Y-94525000D03*
X135765000Y-94525000D03*
X133225000Y-97065000D03*
X135765000Y-97065000D03*
X133225000Y-99605000D03*
X135765000Y-99605000D03*
X133225000Y-102145000D03*
X135765000Y-102145000D03*
X133225000Y-104685000D03*
X135765000Y-104685000D03*
X133225000Y-107225000D03*
X135765000Y-107225000D03*
X133225000Y-109765000D03*
X135765000Y-109765000D03*
X133225000Y-112305000D03*
X135765000Y-112305000D03*
X133225000Y-114845000D03*
X135765000Y-114845000D03*
X133225000Y-117385000D03*
X135765000Y-117385000D03*
%TD*%
D10*
%TO.C,R6*%
X86750000Y-85250000D03*
D11*
X94370000Y-85250000D03*
%TD*%
D10*
%TO.C,R24*%
X125310000Y-118750000D03*
D11*
X117690000Y-118750000D03*
%TD*%
D10*
%TO.C,R10*%
X97750000Y-115500000D03*
D11*
X105370000Y-115500000D03*
%TD*%
D10*
%TO.C,R3*%
X86940000Y-65000000D03*
D11*
X94560000Y-65000000D03*
%TD*%
D10*
%TO.C,R7*%
X96690000Y-95250000D03*
D11*
X104310000Y-95250000D03*
%TD*%
D10*
%TO.C,R2*%
X86690000Y-58750000D03*
D11*
X94310000Y-58750000D03*
%TD*%
D10*
%TO.C,R1*%
X86750000Y-52500000D03*
D11*
X94370000Y-52500000D03*
%TD*%
D10*
%TO.C,R17*%
X116940000Y-67750000D03*
D11*
X124560000Y-67750000D03*
%TD*%
D10*
%TO.C,R22*%
X109250000Y-56750000D03*
D11*
X116870000Y-56750000D03*
%TD*%
M02*
